<mxfile host="drawio-plugin" modified="2021-10-20T13:16:14.799Z" agent="5.0 (Macintosh; Intel Mac OS X 10_16_0) AppleWebKit/537.36 (KHTML, like Gecko) Chrome/84.0.4147.105 Safari/537.36" etag="keef28ahs1LyW5FRQ0Ag" version="14.6.6" type="embed" pages="2"><diagram id="iEZwBRYCassBRZXBE1yN" name="第 1 页"><mxGraphModel dx="1815" dy="728" grid="1" gridSize="10" guides="1" tooltips="1" connect="1" arrows="1" fold="1" page="1" pageScale="1" pageWidth="827" pageHeight="1169" math="0" shadow="0"><root><mxCell id="0"/><mxCell id="1" parent="0"/><mxCell id="gbirktrY-FVWDV3E0UpJ-1" value="JobRecord" style="shape=table;startSize=30;container=1;collapsible=1;childLayout=tableLayout;fixedRows=1;rowLines=0;fontStyle=1;align=center;resizeLast=1;" parent="1" vertex="1"><mxGeometry x="827" y="60" width="180" height="310" as="geometry"><mxRectangle x="870" y="60" width="100" height="30" as="alternateBounds"/></mxGeometry></mxCell><mxCell id="gbirktrY-FVWDV3E0UpJ-2" value="" style="shape=partialRectangle;collapsible=0;dropTarget=0;pointerEvents=0;fillColor=none;top=0;left=0;bottom=1;right=0;points=[[0,0.5],[1,0.5]];portConstraint=eastwest;" parent="gbirktrY-FVWDV3E0UpJ-1" vertex="1"><mxGeometry y="30" width="180" height="30" as="geometry"/></mxCell><mxCell id="gbirktrY-FVWDV3E0UpJ-3" value="PK" style="shape=partialRectangle;connectable=0;fillColor=none;top=0;left=0;bottom=0;right=0;fontStyle=1;overflow=hidden;" parent="gbirktrY-FVWDV3E0UpJ-2" vertex="1"><mxGeometry width="30" height="30" as="geometry"/></mxCell><mxCell id="gbirktrY-FVWDV3E0UpJ-4" value="serialId" style="shape=partialRectangle;connectable=0;fillColor=none;top=0;left=0;bottom=0;right=0;align=left;spacingLeft=6;fontStyle=5;overflow=hidden;" parent="gbirktrY-FVWDV3E0UpJ-2" vertex="1"><mxGeometry x="30" width="150" height="30" as="geometry"/></mxCell><mxCell id="gbirktrY-FVWDV3E0UpJ-127" value="" style="shape=partialRectangle;collapsible=0;dropTarget=0;pointerEvents=0;fillColor=none;top=0;left=0;bottom=0;right=0;points=[[0,0.5],[1,0.5]];portConstraint=eastwest;" parent="gbirktrY-FVWDV3E0UpJ-1" vertex="1"><mxGeometry y="60" width="180" height="30" as="geometry"/></mxCell><mxCell id="gbirktrY-FVWDV3E0UpJ-128" value="" style="shape=partialRectangle;connectable=0;fillColor=none;top=0;left=0;bottom=0;right=0;editable=1;overflow=hidden;" parent="gbirktrY-FVWDV3E0UpJ-127" vertex="1"><mxGeometry width="30" height="30" as="geometry"/></mxCell><mxCell id="gbirktrY-FVWDV3E0UpJ-129" value="jobId" style="shape=partialRectangle;connectable=0;fillColor=none;top=0;left=0;bottom=0;right=0;align=left;spacingLeft=6;overflow=hidden;" parent="gbirktrY-FVWDV3E0UpJ-127" vertex="1"><mxGeometry x="30" width="150" height="30" as="geometry"/></mxCell><mxCell id="gbirktrY-FVWDV3E0UpJ-124" value="" style="shape=partialRectangle;collapsible=0;dropTarget=0;pointerEvents=0;fillColor=none;top=0;left=0;bottom=0;right=0;points=[[0,0.5],[1,0.5]];portConstraint=eastwest;" parent="gbirktrY-FVWDV3E0UpJ-1" vertex="1"><mxGeometry y="90" width="180" height="30" as="geometry"/></mxCell><mxCell id="gbirktrY-FVWDV3E0UpJ-125" value="" style="shape=partialRectangle;connectable=0;fillColor=none;top=0;left=0;bottom=0;right=0;editable=1;overflow=hidden;" parent="gbirktrY-FVWDV3E0UpJ-124" vertex="1"><mxGeometry width="30" height="30" as="geometry"/></mxCell><mxCell id="gbirktrY-FVWDV3E0UpJ-126" value="planInstanceId" style="shape=partialRectangle;connectable=0;fillColor=none;top=0;left=0;bottom=0;right=0;align=left;spacingLeft=6;overflow=hidden;" parent="gbirktrY-FVWDV3E0UpJ-124" vertex="1"><mxGeometry x="30" width="150" height="30" as="geometry"/></mxCell><mxCell id="t86Bx-q1K5HOzZQZWWC3-95" value="" style="shape=partialRectangle;collapsible=0;dropTarget=0;pointerEvents=0;fillColor=none;top=0;left=0;bottom=0;right=0;points=[[0,0.5],[1,0.5]];portConstraint=eastwest;" parent="gbirktrY-FVWDV3E0UpJ-1" vertex="1"><mxGeometry y="120" width="180" height="30" as="geometry"/></mxCell><mxCell id="t86Bx-q1K5HOzZQZWWC3-96" value="" style="shape=partialRectangle;connectable=0;fillColor=none;top=0;left=0;bottom=0;right=0;editable=1;overflow=hidden;" parent="t86Bx-q1K5HOzZQZWWC3-95" vertex="1"><mxGeometry width="30" height="30" as="geometry"/></mxCell><mxCell id="t86Bx-q1K5HOzZQZWWC3-97" value="planRecordId" style="shape=partialRectangle;connectable=0;fillColor=none;top=0;left=0;bottom=0;right=0;align=left;spacingLeft=6;overflow=hidden;" parent="t86Bx-q1K5HOzZQZWWC3-95" vertex="1"><mxGeometry x="30" width="150" height="30" as="geometry"/></mxCell><mxCell id="gbirktrY-FVWDV3E0UpJ-130" value="" style="shape=partialRectangle;collapsible=0;dropTarget=0;pointerEvents=0;fillColor=none;top=0;left=0;bottom=0;right=0;points=[[0,0.5],[1,0.5]];portConstraint=eastwest;" parent="gbirktrY-FVWDV3E0UpJ-1" vertex="1"><mxGeometry y="150" width="180" height="30" as="geometry"/></mxCell><mxCell id="gbirktrY-FVWDV3E0UpJ-131" value="" style="shape=partialRectangle;connectable=0;fillColor=none;top=0;left=0;bottom=0;right=0;editable=1;overflow=hidden;" parent="gbirktrY-FVWDV3E0UpJ-130" vertex="1"><mxGeometry width="30" height="30" as="geometry"/></mxCell><mxCell id="gbirktrY-FVWDV3E0UpJ-132" value="planId" style="shape=partialRectangle;connectable=0;fillColor=none;top=0;left=0;bottom=0;right=0;align=left;spacingLeft=6;overflow=hidden;" parent="gbirktrY-FVWDV3E0UpJ-130" vertex="1"><mxGeometry x="30" width="150" height="30" as="geometry"/></mxCell><mxCell id="gbirktrY-FVWDV3E0UpJ-140" value="" style="shape=partialRectangle;collapsible=0;dropTarget=0;pointerEvents=0;fillColor=none;top=0;left=0;bottom=0;right=0;points=[[0,0.5],[1,0.5]];portConstraint=eastwest;" parent="gbirktrY-FVWDV3E0UpJ-1" vertex="1"><mxGeometry y="180" width="180" height="30" as="geometry"/></mxCell><mxCell id="gbirktrY-FVWDV3E0UpJ-141" value="" style="shape=partialRectangle;connectable=0;fillColor=none;top=0;left=0;bottom=0;right=0;editable=1;overflow=hidden;" parent="gbirktrY-FVWDV3E0UpJ-140" vertex="1"><mxGeometry width="30" height="30" as="geometry"/></mxCell><mxCell id="gbirktrY-FVWDV3E0UpJ-142" value="state" style="shape=partialRectangle;connectable=0;fillColor=none;top=0;left=0;bottom=0;right=0;align=left;spacingLeft=6;overflow=hidden;" parent="gbirktrY-FVWDV3E0UpJ-140" vertex="1"><mxGeometry x="30" width="150" height="30" as="geometry"/></mxCell><mxCell id="gbirktrY-FVWDV3E0UpJ-146" value="" style="shape=partialRectangle;collapsible=0;dropTarget=0;pointerEvents=0;fillColor=none;top=0;left=0;bottom=0;right=0;points=[[0,0.5],[1,0.5]];portConstraint=eastwest;" parent="gbirktrY-FVWDV3E0UpJ-1" vertex="1"><mxGeometry y="210" width="180" height="30" as="geometry"/></mxCell><mxCell id="gbirktrY-FVWDV3E0UpJ-147" value="" style="shape=partialRectangle;connectable=0;fillColor=none;top=0;left=0;bottom=0;right=0;editable=1;overflow=hidden;" parent="gbirktrY-FVWDV3E0UpJ-146" vertex="1"><mxGeometry width="30" height="30" as="geometry"/></mxCell><mxCell id="gbirktrY-FVWDV3E0UpJ-148" value="attributes" style="shape=partialRectangle;connectable=0;fillColor=none;top=0;left=0;bottom=0;right=0;align=left;spacingLeft=6;overflow=hidden;" parent="gbirktrY-FVWDV3E0UpJ-146" vertex="1"><mxGeometry x="30" width="150" height="30" as="geometry"/></mxCell><mxCell id="t86Bx-q1K5HOzZQZWWC3-99" value="" style="shape=partialRectangle;collapsible=0;dropTarget=0;pointerEvents=0;fillColor=none;top=0;left=0;bottom=0;right=0;points=[[0,0.5],[1,0.5]];portConstraint=eastwest;" parent="gbirktrY-FVWDV3E0UpJ-1" vertex="1"><mxGeometry y="240" width="180" height="30" as="geometry"/></mxCell><mxCell id="t86Bx-q1K5HOzZQZWWC3-100" value="" style="shape=partialRectangle;connectable=0;fillColor=none;top=0;left=0;bottom=0;right=0;editable=1;overflow=hidden;" parent="t86Bx-q1K5HOzZQZWWC3-99" vertex="1"><mxGeometry width="30" height="30" as="geometry"/></mxCell><mxCell id="t86Bx-q1K5HOzZQZWWC3-101" value="beginAt（startAt）" style="shape=partialRectangle;connectable=0;fillColor=none;top=0;left=0;bottom=0;right=0;align=left;spacingLeft=6;overflow=hidden;" parent="t86Bx-q1K5HOzZQZWWC3-99" vertex="1"><mxGeometry x="30" width="150" height="30" as="geometry"/></mxCell><mxCell id="t86Bx-q1K5HOzZQZWWC3-105" value="" style="shape=partialRectangle;collapsible=0;dropTarget=0;pointerEvents=0;fillColor=none;top=0;left=0;bottom=0;right=0;points=[[0,0.5],[1,0.5]];portConstraint=eastwest;" parent="gbirktrY-FVWDV3E0UpJ-1" vertex="1"><mxGeometry y="270" width="180" height="30" as="geometry"/></mxCell><mxCell id="t86Bx-q1K5HOzZQZWWC3-106" value="" style="shape=partialRectangle;connectable=0;fillColor=none;top=0;left=0;bottom=0;right=0;editable=1;overflow=hidden;" parent="t86Bx-q1K5HOzZQZWWC3-105" vertex="1"><mxGeometry width="30" height="30" as="geometry"/></mxCell><mxCell id="t86Bx-q1K5HOzZQZWWC3-107" value="endAt" style="shape=partialRectangle;connectable=0;fillColor=none;top=0;left=0;bottom=0;right=0;align=left;spacingLeft=6;overflow=hidden;" parent="t86Bx-q1K5HOzZQZWWC3-105" vertex="1"><mxGeometry x="30" width="150" height="30" as="geometry"/></mxCell><mxCell id="gbirktrY-FVWDV3E0UpJ-14" value="PlanInstance" style="shape=table;startSize=30;container=1;collapsible=1;childLayout=tableLayout;fixedRows=1;rowLines=0;fontStyle=1;align=center;resizeLast=1;" parent="1" vertex="1"><mxGeometry x="580" y="60" width="180" height="250" as="geometry"><mxRectangle x="560" y="60" width="100" height="30" as="alternateBounds"/></mxGeometry></mxCell><mxCell id="gbirktrY-FVWDV3E0UpJ-15" value="" style="shape=partialRectangle;collapsible=0;dropTarget=0;pointerEvents=0;fillColor=none;top=0;left=0;bottom=1;right=0;points=[[0,0.5],[1,0.5]];portConstraint=eastwest;" parent="gbirktrY-FVWDV3E0UpJ-14" vertex="1"><mxGeometry y="30" width="180" height="30" as="geometry"/></mxCell><mxCell id="gbirktrY-FVWDV3E0UpJ-16" value="PK" style="shape=partialRectangle;connectable=0;fillColor=none;top=0;left=0;bottom=0;right=0;fontStyle=1;overflow=hidden;" parent="gbirktrY-FVWDV3E0UpJ-15" vertex="1"><mxGeometry width="30" height="30" as="geometry"/></mxCell><mxCell id="gbirktrY-FVWDV3E0UpJ-17" value="serialId" style="shape=partialRectangle;connectable=0;fillColor=none;top=0;left=0;bottom=0;right=0;align=left;spacingLeft=6;fontStyle=5;overflow=hidden;" parent="gbirktrY-FVWDV3E0UpJ-15" vertex="1"><mxGeometry x="30" width="150" height="30" as="geometry"/></mxCell><mxCell id="gbirktrY-FVWDV3E0UpJ-106" value="" style="shape=partialRectangle;collapsible=0;dropTarget=0;pointerEvents=0;fillColor=none;top=0;left=0;bottom=0;right=0;points=[[0,0.5],[1,0.5]];portConstraint=eastwest;" parent="gbirktrY-FVWDV3E0UpJ-14" vertex="1"><mxGeometry y="60" width="180" height="30" as="geometry"/></mxCell><mxCell id="gbirktrY-FVWDV3E0UpJ-107" value="" style="shape=partialRectangle;connectable=0;fillColor=none;top=0;left=0;bottom=0;right=0;editable=1;overflow=hidden;" parent="gbirktrY-FVWDV3E0UpJ-106" vertex="1"><mxGeometry width="30" height="30" as="geometry"/></mxCell><mxCell id="gbirktrY-FVWDV3E0UpJ-108" value="planInstanceId" style="shape=partialRectangle;connectable=0;fillColor=none;top=0;left=0;bottom=0;right=0;align=left;spacingLeft=6;overflow=hidden;" parent="gbirktrY-FVWDV3E0UpJ-106" vertex="1"><mxGeometry x="30" width="150" height="30" as="geometry"/></mxCell><mxCell id="t86Bx-q1K5HOzZQZWWC3-58" value="" style="shape=partialRectangle;collapsible=0;dropTarget=0;pointerEvents=0;fillColor=none;top=0;left=0;bottom=0;right=0;points=[[0,0.5],[1,0.5]];portConstraint=eastwest;" parent="gbirktrY-FVWDV3E0UpJ-14" vertex="1"><mxGeometry y="90" width="180" height="30" as="geometry"/></mxCell><mxCell id="t86Bx-q1K5HOzZQZWWC3-59" value="" style="shape=partialRectangle;connectable=0;fillColor=none;top=0;left=0;bottom=0;right=0;editable=1;overflow=hidden;" parent="t86Bx-q1K5HOzZQZWWC3-58" vertex="1"><mxGeometry width="30" height="30" as="geometry"/></mxCell><mxCell id="t86Bx-q1K5HOzZQZWWC3-60" value="planRecordId" style="shape=partialRectangle;connectable=0;fillColor=none;top=0;left=0;bottom=0;right=0;align=left;spacingLeft=6;overflow=hidden;" parent="t86Bx-q1K5HOzZQZWWC3-58" vertex="1"><mxGeometry x="30" width="150" height="30" as="geometry"/></mxCell><mxCell id="gbirktrY-FVWDV3E0UpJ-103" value="" style="shape=partialRectangle;collapsible=0;dropTarget=0;pointerEvents=0;fillColor=none;top=0;left=0;bottom=0;right=0;points=[[0,0.5],[1,0.5]];portConstraint=eastwest;" parent="gbirktrY-FVWDV3E0UpJ-14" vertex="1"><mxGeometry y="120" width="180" height="30" as="geometry"/></mxCell><mxCell id="gbirktrY-FVWDV3E0UpJ-104" value="" style="shape=partialRectangle;connectable=0;fillColor=none;top=0;left=0;bottom=0;right=0;editable=1;overflow=hidden;" parent="gbirktrY-FVWDV3E0UpJ-103" vertex="1"><mxGeometry width="30" height="30" as="geometry"/></mxCell><mxCell id="gbirktrY-FVWDV3E0UpJ-105" value="planId" style="shape=partialRectangle;connectable=0;fillColor=none;top=0;left=0;bottom=0;right=0;align=left;spacingLeft=6;overflow=hidden;" parent="gbirktrY-FVWDV3E0UpJ-103" vertex="1"><mxGeometry x="30" width="150" height="30" as="geometry"/></mxCell><mxCell id="gbirktrY-FVWDV3E0UpJ-112" value="" style="shape=partialRectangle;collapsible=0;dropTarget=0;pointerEvents=0;fillColor=none;top=0;left=0;bottom=0;right=0;points=[[0,0.5],[1,0.5]];portConstraint=eastwest;" parent="gbirktrY-FVWDV3E0UpJ-14" vertex="1"><mxGeometry y="150" width="180" height="30" as="geometry"/></mxCell><mxCell id="gbirktrY-FVWDV3E0UpJ-113" value="" style="shape=partialRectangle;connectable=0;fillColor=none;top=0;left=0;bottom=0;right=0;editable=1;overflow=hidden;" parent="gbirktrY-FVWDV3E0UpJ-112" vertex="1"><mxGeometry width="30" height="30" as="geometry"/></mxCell><mxCell id="gbirktrY-FVWDV3E0UpJ-114" value="state" style="shape=partialRectangle;connectable=0;fillColor=none;top=0;left=0;bottom=0;right=0;align=left;spacingLeft=6;overflow=hidden;" parent="gbirktrY-FVWDV3E0UpJ-112" vertex="1"><mxGeometry x="30" width="150" height="30" as="geometry"/></mxCell><mxCell id="gbirktrY-FVWDV3E0UpJ-118" value="" style="shape=partialRectangle;collapsible=0;dropTarget=0;pointerEvents=0;fillColor=none;top=0;left=0;bottom=0;right=0;points=[[0,0.5],[1,0.5]];portConstraint=eastwest;" parent="gbirktrY-FVWDV3E0UpJ-14" vertex="1"><mxGeometry y="180" width="180" height="30" as="geometry"/></mxCell><mxCell id="gbirktrY-FVWDV3E0UpJ-119" value="" style="shape=partialRectangle;connectable=0;fillColor=none;top=0;left=0;bottom=0;right=0;editable=1;overflow=hidden;" parent="gbirktrY-FVWDV3E0UpJ-118" vertex="1"><mxGeometry width="30" height="30" as="geometry"/></mxCell><mxCell id="gbirktrY-FVWDV3E0UpJ-120" value="beginAt（startAt）" style="shape=partialRectangle;connectable=0;fillColor=none;top=0;left=0;bottom=0;right=0;align=left;spacingLeft=6;overflow=hidden;" parent="gbirktrY-FVWDV3E0UpJ-118" vertex="1"><mxGeometry x="30" width="150" height="30" as="geometry"/></mxCell><mxCell id="gbirktrY-FVWDV3E0UpJ-121" value="" style="shape=partialRectangle;collapsible=0;dropTarget=0;pointerEvents=0;fillColor=none;top=0;left=0;bottom=0;right=0;points=[[0,0.5],[1,0.5]];portConstraint=eastwest;" parent="gbirktrY-FVWDV3E0UpJ-14" vertex="1"><mxGeometry y="210" width="180" height="30" as="geometry"/></mxCell><mxCell id="gbirktrY-FVWDV3E0UpJ-122" value="" style="shape=partialRectangle;connectable=0;fillColor=none;top=0;left=0;bottom=0;right=0;editable=1;overflow=hidden;" parent="gbirktrY-FVWDV3E0UpJ-121" vertex="1"><mxGeometry width="30" height="30" as="geometry"/></mxCell><mxCell id="gbirktrY-FVWDV3E0UpJ-123" value="endAt" style="shape=partialRectangle;connectable=0;fillColor=none;top=0;left=0;bottom=0;right=0;align=left;spacingLeft=6;overflow=hidden;" parent="gbirktrY-FVWDV3E0UpJ-121" vertex="1"><mxGeometry x="30" width="150" height="30" as="geometry"/></mxCell><mxCell id="gbirktrY-FVWDV3E0UpJ-18" value="Plan" style="shape=table;startSize=30;container=1;collapsible=1;childLayout=tableLayout;fixedRows=1;rowLines=0;fontStyle=1;align=center;resizeLast=1;" parent="1" vertex="1"><mxGeometry x="30" y="60" width="180" height="190" as="geometry"><mxRectangle x="30" y="60" width="100" height="30" as="alternateBounds"/></mxGeometry></mxCell><mxCell id="gbirktrY-FVWDV3E0UpJ-19" value="" style="shape=partialRectangle;collapsible=0;dropTarget=0;pointerEvents=0;fillColor=none;top=0;left=0;bottom=1;right=0;points=[[0,0.5],[1,0.5]];portConstraint=eastwest;" parent="gbirktrY-FVWDV3E0UpJ-18" vertex="1"><mxGeometry y="30" width="180" height="30" as="geometry"/></mxCell><mxCell id="gbirktrY-FVWDV3E0UpJ-20" value="PK" style="shape=partialRectangle;connectable=0;fillColor=none;top=0;left=0;bottom=0;right=0;fontStyle=1;overflow=hidden;" parent="gbirktrY-FVWDV3E0UpJ-19" vertex="1"><mxGeometry width="30" height="30" as="geometry"/></mxCell><mxCell id="gbirktrY-FVWDV3E0UpJ-21" value="serialId" style="shape=partialRectangle;connectable=0;fillColor=none;top=0;left=0;bottom=0;right=0;align=left;spacingLeft=6;fontStyle=5;overflow=hidden;" parent="gbirktrY-FVWDV3E0UpJ-19" vertex="1"><mxGeometry x="30" width="150" height="30" as="geometry"/></mxCell><mxCell id="gbirktrY-FVWDV3E0UpJ-46" value="" style="shape=partialRectangle;collapsible=0;dropTarget=0;pointerEvents=0;fillColor=none;top=0;left=0;bottom=0;right=0;points=[[0,0.5],[1,0.5]];portConstraint=eastwest;" parent="gbirktrY-FVWDV3E0UpJ-18" vertex="1"><mxGeometry y="60" width="180" height="30" as="geometry"/></mxCell><mxCell id="gbirktrY-FVWDV3E0UpJ-47" value="" style="shape=partialRectangle;connectable=0;fillColor=none;top=0;left=0;bottom=0;right=0;editable=1;overflow=hidden;" parent="gbirktrY-FVWDV3E0UpJ-46" vertex="1"><mxGeometry width="30" height="30" as="geometry"/></mxCell><mxCell id="gbirktrY-FVWDV3E0UpJ-48" value="planId" style="shape=partialRectangle;connectable=0;fillColor=none;top=0;left=0;bottom=0;right=0;align=left;spacingLeft=6;overflow=hidden;" parent="gbirktrY-FVWDV3E0UpJ-46" vertex="1"><mxGeometry x="30" width="150" height="30" as="geometry"/></mxCell><mxCell id="gbirktrY-FVWDV3E0UpJ-52" value="" style="shape=partialRectangle;collapsible=0;dropTarget=0;pointerEvents=0;fillColor=none;top=0;left=0;bottom=0;right=0;points=[[0,0.5],[1,0.5]];portConstraint=eastwest;" parent="gbirktrY-FVWDV3E0UpJ-18" vertex="1"><mxGeometry y="90" width="180" height="30" as="geometry"/></mxCell><mxCell id="gbirktrY-FVWDV3E0UpJ-53" value="" style="shape=partialRectangle;connectable=0;fillColor=none;top=0;left=0;bottom=0;right=0;editable=1;overflow=hidden;" parent="gbirktrY-FVWDV3E0UpJ-52" vertex="1"><mxGeometry width="30" height="30" as="geometry"/></mxCell><mxCell id="gbirktrY-FVWDV3E0UpJ-54" value="currentVersion" style="shape=partialRectangle;connectable=0;fillColor=none;top=0;left=0;bottom=0;right=0;align=left;spacingLeft=6;overflow=hidden;" parent="gbirktrY-FVWDV3E0UpJ-52" vertex="1"><mxGeometry x="30" width="150" height="30" as="geometry"/></mxCell><mxCell id="gbirktrY-FVWDV3E0UpJ-55" value="" style="shape=partialRectangle;collapsible=0;dropTarget=0;pointerEvents=0;fillColor=none;top=0;left=0;bottom=0;right=0;points=[[0,0.5],[1,0.5]];portConstraint=eastwest;" parent="gbirktrY-FVWDV3E0UpJ-18" vertex="1"><mxGeometry y="120" width="180" height="30" as="geometry"/></mxCell><mxCell id="gbirktrY-FVWDV3E0UpJ-56" value="" style="shape=partialRectangle;connectable=0;fillColor=none;top=0;left=0;bottom=0;right=0;editable=1;overflow=hidden;" parent="gbirktrY-FVWDV3E0UpJ-55" vertex="1"><mxGeometry width="30" height="30" as="geometry"/></mxCell><mxCell id="gbirktrY-FVWDV3E0UpJ-57" value="maxVersion（recentlyVersion）" style="shape=partialRectangle;connectable=0;fillColor=none;top=0;left=0;bottom=0;right=0;align=left;spacingLeft=6;overflow=hidden;" parent="gbirktrY-FVWDV3E0UpJ-55" vertex="1"><mxGeometry x="30" width="150" height="30" as="geometry"/></mxCell><mxCell id="gbirktrY-FVWDV3E0UpJ-58" value="" style="shape=partialRectangle;collapsible=0;dropTarget=0;pointerEvents=0;fillColor=none;top=0;left=0;bottom=0;right=0;points=[[0,0.5],[1,0.5]];portConstraint=eastwest;" parent="gbirktrY-FVWDV3E0UpJ-18" vertex="1"><mxGeometry y="150" width="180" height="30" as="geometry"/></mxCell><mxCell id="gbirktrY-FVWDV3E0UpJ-59" value="" style="shape=partialRectangle;connectable=0;fillColor=none;top=0;left=0;bottom=0;right=0;editable=1;overflow=hidden;" parent="gbirktrY-FVWDV3E0UpJ-58" vertex="1"><mxGeometry width="30" height="30" as="geometry"/></mxCell><mxCell id="gbirktrY-FVWDV3E0UpJ-60" value="isEnabled" style="shape=partialRectangle;connectable=0;fillColor=none;top=0;left=0;bottom=0;right=0;align=left;spacingLeft=6;overflow=hidden;" parent="gbirktrY-FVWDV3E0UpJ-58" vertex="1"><mxGeometry x="30" width="150" height="30" as="geometry"/></mxCell><mxCell id="gbirktrY-FVWDV3E0UpJ-22" value="PlanInfo" style="shape=table;startSize=30;container=1;collapsible=1;childLayout=tableLayout;fixedRows=1;rowLines=0;fontStyle=1;align=center;resizeLast=1;" parent="1" vertex="1"><mxGeometry x="30" y="300" width="180" height="400" as="geometry"><mxRectangle x="290" y="60" width="100" height="30" as="alternateBounds"/></mxGeometry></mxCell><mxCell id="gbirktrY-FVWDV3E0UpJ-23" value="" style="shape=partialRectangle;collapsible=0;dropTarget=0;pointerEvents=0;fillColor=none;top=0;left=0;bottom=1;right=0;points=[[0,0.5],[1,0.5]];portConstraint=eastwest;" parent="gbirktrY-FVWDV3E0UpJ-22" vertex="1"><mxGeometry y="30" width="180" height="30" as="geometry"/></mxCell><mxCell id="gbirktrY-FVWDV3E0UpJ-24" value="PK" style="shape=partialRectangle;connectable=0;fillColor=none;top=0;left=0;bottom=0;right=0;fontStyle=1;overflow=hidden;" parent="gbirktrY-FVWDV3E0UpJ-23" vertex="1"><mxGeometry width="30" height="30" as="geometry"/></mxCell><mxCell id="gbirktrY-FVWDV3E0UpJ-25" value="serialId" style="shape=partialRectangle;connectable=0;fillColor=none;top=0;left=0;bottom=0;right=0;align=left;spacingLeft=6;fontStyle=5;overflow=hidden;" parent="gbirktrY-FVWDV3E0UpJ-23" vertex="1"><mxGeometry x="30" width="150" height="30" as="geometry"/></mxCell><mxCell id="gbirktrY-FVWDV3E0UpJ-65" value="" style="shape=partialRectangle;collapsible=0;dropTarget=0;pointerEvents=0;fillColor=none;top=0;left=0;bottom=0;right=0;points=[[0,0.5],[1,0.5]];portConstraint=eastwest;" parent="gbirktrY-FVWDV3E0UpJ-22" vertex="1"><mxGeometry y="60" width="180" height="30" as="geometry"/></mxCell><mxCell id="gbirktrY-FVWDV3E0UpJ-66" value="" style="shape=partialRectangle;connectable=0;fillColor=none;top=0;left=0;bottom=0;right=0;editable=1;overflow=hidden;" parent="gbirktrY-FVWDV3E0UpJ-65" vertex="1"><mxGeometry width="30" height="30" as="geometry"/></mxCell><mxCell id="gbirktrY-FVWDV3E0UpJ-67" value="planId" style="shape=partialRectangle;connectable=0;fillColor=none;top=0;left=0;bottom=0;right=0;align=left;spacingLeft=6;overflow=hidden;" parent="gbirktrY-FVWDV3E0UpJ-65" vertex="1"><mxGeometry x="30" width="150" height="30" as="geometry"/></mxCell><mxCell id="gbirktrY-FVWDV3E0UpJ-68" value="" style="shape=partialRectangle;collapsible=0;dropTarget=0;pointerEvents=0;fillColor=none;top=0;left=0;bottom=0;right=0;points=[[0,0.5],[1,0.5]];portConstraint=eastwest;" parent="gbirktrY-FVWDV3E0UpJ-22" vertex="1"><mxGeometry y="90" width="180" height="30" as="geometry"/></mxCell><mxCell id="gbirktrY-FVWDV3E0UpJ-69" value="" style="shape=partialRectangle;connectable=0;fillColor=none;top=0;left=0;bottom=0;right=0;editable=1;overflow=hidden;" parent="gbirktrY-FVWDV3E0UpJ-68" vertex="1"><mxGeometry width="30" height="30" as="geometry"/></mxCell><mxCell id="gbirktrY-FVWDV3E0UpJ-70" value="version" style="shape=partialRectangle;connectable=0;fillColor=none;top=0;left=0;bottom=0;right=0;align=left;spacingLeft=6;overflow=hidden;" parent="gbirktrY-FVWDV3E0UpJ-68" vertex="1"><mxGeometry x="30" width="150" height="30" as="geometry"/></mxCell><mxCell id="gbirktrY-FVWDV3E0UpJ-71" value="" style="shape=partialRectangle;collapsible=0;dropTarget=0;pointerEvents=0;fillColor=none;top=0;left=0;bottom=0;right=0;points=[[0,0.5],[1,0.5]];portConstraint=eastwest;" parent="gbirktrY-FVWDV3E0UpJ-22" vertex="1"><mxGeometry y="120" width="180" height="30" as="geometry"/></mxCell><mxCell id="gbirktrY-FVWDV3E0UpJ-72" value="" style="shape=partialRectangle;connectable=0;fillColor=none;top=0;left=0;bottom=0;right=0;editable=1;overflow=hidden;" parent="gbirktrY-FVWDV3E0UpJ-71" vertex="1"><mxGeometry width="30" height="30" as="geometry"/></mxCell><mxCell id="gbirktrY-FVWDV3E0UpJ-73" value="description" style="shape=partialRectangle;connectable=0;fillColor=none;top=0;left=0;bottom=0;right=0;align=left;spacingLeft=6;overflow=hidden;" parent="gbirktrY-FVWDV3E0UpJ-71" vertex="1"><mxGeometry x="30" width="150" height="30" as="geometry"/></mxCell><mxCell id="gbirktrY-FVWDV3E0UpJ-74" value="" style="shape=partialRectangle;collapsible=0;dropTarget=0;pointerEvents=0;fillColor=none;top=0;left=0;bottom=0;right=0;points=[[0,0.5],[1,0.5]];portConstraint=eastwest;" parent="gbirktrY-FVWDV3E0UpJ-22" vertex="1"><mxGeometry y="150" width="180" height="30" as="geometry"/></mxCell><mxCell id="gbirktrY-FVWDV3E0UpJ-75" value="" style="shape=partialRectangle;connectable=0;fillColor=none;top=0;left=0;bottom=0;right=0;editable=1;overflow=hidden;" parent="gbirktrY-FVWDV3E0UpJ-74" vertex="1"><mxGeometry width="30" height="30" as="geometry"/></mxCell><mxCell id="gbirktrY-FVWDV3E0UpJ-76" value="scheduleType" style="shape=partialRectangle;connectable=0;fillColor=none;top=0;left=0;bottom=0;right=0;align=left;spacingLeft=6;overflow=hidden;" parent="gbirktrY-FVWDV3E0UpJ-74" vertex="1"><mxGeometry x="30" width="150" height="30" as="geometry"/></mxCell><mxCell id="gbirktrY-FVWDV3E0UpJ-77" value="" style="shape=partialRectangle;collapsible=0;dropTarget=0;pointerEvents=0;fillColor=none;top=0;left=0;bottom=0;right=0;points=[[0,0.5],[1,0.5]];portConstraint=eastwest;" parent="gbirktrY-FVWDV3E0UpJ-22" vertex="1"><mxGeometry y="180" width="180" height="30" as="geometry"/></mxCell><mxCell id="gbirktrY-FVWDV3E0UpJ-78" value="" style="shape=partialRectangle;connectable=0;fillColor=none;top=0;left=0;bottom=0;right=0;editable=1;overflow=hidden;" parent="gbirktrY-FVWDV3E0UpJ-77" vertex="1"><mxGeometry width="30" height="30" as="geometry"/></mxCell><mxCell id="gbirktrY-FVWDV3E0UpJ-79" value="scheduleStartAt" style="shape=partialRectangle;connectable=0;fillColor=none;top=0;left=0;bottom=0;right=0;align=left;spacingLeft=6;overflow=hidden;" parent="gbirktrY-FVWDV3E0UpJ-77" vertex="1"><mxGeometry x="30" width="150" height="30" as="geometry"/></mxCell><mxCell id="gbirktrY-FVWDV3E0UpJ-80" value="" style="shape=partialRectangle;collapsible=0;dropTarget=0;pointerEvents=0;fillColor=none;top=0;left=0;bottom=0;right=0;points=[[0,0.5],[1,0.5]];portConstraint=eastwest;" parent="gbirktrY-FVWDV3E0UpJ-22" vertex="1"><mxGeometry y="210" width="180" height="30" as="geometry"/></mxCell><mxCell id="gbirktrY-FVWDV3E0UpJ-81" value="" style="shape=partialRectangle;connectable=0;fillColor=none;top=0;left=0;bottom=0;right=0;editable=1;overflow=hidden;" parent="gbirktrY-FVWDV3E0UpJ-80" vertex="1"><mxGeometry width="30" height="30" as="geometry"/></mxCell><mxCell id="gbirktrY-FVWDV3E0UpJ-82" value="shceduleDelay" style="shape=partialRectangle;connectable=0;fillColor=none;top=0;left=0;bottom=0;right=0;align=left;spacingLeft=6;overflow=hidden;" parent="gbirktrY-FVWDV3E0UpJ-80" vertex="1"><mxGeometry x="30" width="150" height="30" as="geometry"/></mxCell><mxCell id="gbirktrY-FVWDV3E0UpJ-83" value="" style="shape=partialRectangle;collapsible=0;dropTarget=0;pointerEvents=0;fillColor=none;top=0;left=0;bottom=0;right=0;points=[[0,0.5],[1,0.5]];portConstraint=eastwest;" parent="gbirktrY-FVWDV3E0UpJ-22" vertex="1"><mxGeometry y="240" width="180" height="30" as="geometry"/></mxCell><mxCell id="gbirktrY-FVWDV3E0UpJ-84" value="" style="shape=partialRectangle;connectable=0;fillColor=none;top=0;left=0;bottom=0;right=0;editable=1;overflow=hidden;" parent="gbirktrY-FVWDV3E0UpJ-83" vertex="1"><mxGeometry width="30" height="30" as="geometry"/></mxCell><mxCell id="gbirktrY-FVWDV3E0UpJ-85" value="scheduleInterval" style="shape=partialRectangle;connectable=0;fillColor=none;top=0;left=0;bottom=0;right=0;align=left;spacingLeft=6;overflow=hidden;" parent="gbirktrY-FVWDV3E0UpJ-83" vertex="1"><mxGeometry x="30" width="150" height="30" as="geometry"/></mxCell><mxCell id="gbirktrY-FVWDV3E0UpJ-91" value="" style="shape=partialRectangle;collapsible=0;dropTarget=0;pointerEvents=0;fillColor=none;top=0;left=0;bottom=0;right=0;points=[[0,0.5],[1,0.5]];portConstraint=eastwest;" parent="gbirktrY-FVWDV3E0UpJ-22" vertex="1"><mxGeometry y="270" width="180" height="30" as="geometry"/></mxCell><mxCell id="gbirktrY-FVWDV3E0UpJ-92" value="" style="shape=partialRectangle;connectable=0;fillColor=none;top=0;left=0;bottom=0;right=0;editable=1;overflow=hidden;" parent="gbirktrY-FVWDV3E0UpJ-91" vertex="1"><mxGeometry width="30" height="30" as="geometry"/></mxCell><mxCell id="gbirktrY-FVWDV3E0UpJ-93" value="scheduleCron" style="shape=partialRectangle;connectable=0;fillColor=none;top=0;left=0;bottom=0;right=0;align=left;spacingLeft=6;overflow=hidden;" parent="gbirktrY-FVWDV3E0UpJ-91" vertex="1"><mxGeometry x="30" width="150" height="30" as="geometry"/></mxCell><mxCell id="gbirktrY-FVWDV3E0UpJ-100" value="" style="shape=partialRectangle;collapsible=0;dropTarget=0;pointerEvents=0;fillColor=none;top=0;left=0;bottom=0;right=0;points=[[0,0.5],[1,0.5]];portConstraint=eastwest;" parent="gbirktrY-FVWDV3E0UpJ-22" vertex="1"><mxGeometry y="300" width="180" height="30" as="geometry"/></mxCell><mxCell id="gbirktrY-FVWDV3E0UpJ-101" value="" style="shape=partialRectangle;connectable=0;fillColor=none;top=0;left=0;bottom=0;right=0;editable=1;overflow=hidden;" parent="gbirktrY-FVWDV3E0UpJ-100" vertex="1"><mxGeometry width="30" height="30" as="geometry"/></mxCell><mxCell id="gbirktrY-FVWDV3E0UpJ-102" value="retriedTimes（retry）" style="shape=partialRectangle;connectable=0;fillColor=none;top=0;left=0;bottom=0;right=0;align=left;spacingLeft=6;overflow=hidden;" parent="gbirktrY-FVWDV3E0UpJ-100" vertex="1"><mxGeometry x="30" width="150" height="30" as="geometry"/></mxCell><mxCell id="gbirktrY-FVWDV3E0UpJ-94" value="" style="shape=partialRectangle;collapsible=0;dropTarget=0;pointerEvents=0;fillColor=none;top=0;left=0;bottom=0;right=0;points=[[0,0.5],[1,0.5]];portConstraint=eastwest;" parent="gbirktrY-FVWDV3E0UpJ-22" vertex="1"><mxGeometry y="330" width="180" height="30" as="geometry"/></mxCell><mxCell id="gbirktrY-FVWDV3E0UpJ-95" value="" style="shape=partialRectangle;connectable=0;fillColor=none;top=0;left=0;bottom=0;right=0;editable=1;overflow=hidden;" parent="gbirktrY-FVWDV3E0UpJ-94" vertex="1"><mxGeometry width="30" height="30" as="geometry"/></mxCell><mxCell id="gbirktrY-FVWDV3E0UpJ-96" value="jobs" style="shape=partialRectangle;connectable=0;fillColor=none;top=0;left=0;bottom=0;right=0;align=left;spacingLeft=6;overflow=hidden;" parent="gbirktrY-FVWDV3E0UpJ-94" vertex="1"><mxGeometry x="30" width="150" height="30" as="geometry"/></mxCell><mxCell id="gbirktrY-FVWDV3E0UpJ-97" value="" style="shape=partialRectangle;collapsible=0;dropTarget=0;pointerEvents=0;fillColor=none;top=0;left=0;bottom=0;right=0;points=[[0,0.5],[1,0.5]];portConstraint=eastwest;" parent="gbirktrY-FVWDV3E0UpJ-22" vertex="1"><mxGeometry y="360" width="180" height="30" as="geometry"/></mxCell><mxCell id="gbirktrY-FVWDV3E0UpJ-98" value="" style="shape=partialRectangle;connectable=0;fillColor=none;top=0;left=0;bottom=0;right=0;editable=1;overflow=hidden;" parent="gbirktrY-FVWDV3E0UpJ-97" vertex="1"><mxGeometry width="30" height="30" as="geometry"/></mxCell><mxCell id="gbirktrY-FVWDV3E0UpJ-99" value="isDeleted" style="shape=partialRectangle;connectable=0;fillColor=none;top=0;left=0;bottom=0;right=0;align=left;spacingLeft=6;overflow=hidden;" parent="gbirktrY-FVWDV3E0UpJ-97" vertex="1"><mxGeometry x="30" width="150" height="30" as="geometry"/></mxCell><mxCell id="gbirktrY-FVWDV3E0UpJ-26" value="Worker" style="shape=table;startSize=30;container=1;collapsible=1;childLayout=tableLayout;fixedRows=1;rowLines=0;fontStyle=1;align=center;resizeLast=1;" parent="1" vertex="1"><mxGeometry x="-560" y="60" width="180" height="220" as="geometry"><mxRectangle x="310" y="290" width="100" height="30" as="alternateBounds"/></mxGeometry></mxCell><mxCell id="gbirktrY-FVWDV3E0UpJ-27" value="" style="shape=partialRectangle;collapsible=0;dropTarget=0;pointerEvents=0;fillColor=none;top=0;left=0;bottom=1;right=0;points=[[0,0.5],[1,0.5]];portConstraint=eastwest;" parent="gbirktrY-FVWDV3E0UpJ-26" vertex="1"><mxGeometry y="30" width="180" height="30" as="geometry"/></mxCell><mxCell id="gbirktrY-FVWDV3E0UpJ-28" value="PK" style="shape=partialRectangle;connectable=0;fillColor=none;top=0;left=0;bottom=0;right=0;fontStyle=1;overflow=hidden;" parent="gbirktrY-FVWDV3E0UpJ-27" vertex="1"><mxGeometry width="30" height="30" as="geometry"/></mxCell><mxCell id="gbirktrY-FVWDV3E0UpJ-29" value="serialId" style="shape=partialRectangle;connectable=0;fillColor=none;top=0;left=0;bottom=0;right=0;align=left;spacingLeft=6;fontStyle=5;overflow=hidden;" parent="gbirktrY-FVWDV3E0UpJ-27" vertex="1"><mxGeometry x="30" width="150" height="30" as="geometry"/></mxCell><mxCell id="gbirktrY-FVWDV3E0UpJ-160" value="" style="shape=partialRectangle;collapsible=0;dropTarget=0;pointerEvents=0;fillColor=none;top=0;left=0;bottom=0;right=0;points=[[0,0.5],[1,0.5]];portConstraint=eastwest;" parent="gbirktrY-FVWDV3E0UpJ-26" vertex="1"><mxGeometry y="60" width="180" height="30" as="geometry"/></mxCell><mxCell id="gbirktrY-FVWDV3E0UpJ-161" value="" style="shape=partialRectangle;connectable=0;fillColor=none;top=0;left=0;bottom=0;right=0;editable=1;overflow=hidden;" parent="gbirktrY-FVWDV3E0UpJ-160" vertex="1"><mxGeometry width="30" height="30" as="geometry"/></mxCell><mxCell id="gbirktrY-FVWDV3E0UpJ-162" value="workerId" style="shape=partialRectangle;connectable=0;fillColor=none;top=0;left=0;bottom=0;right=0;align=left;spacingLeft=6;overflow=hidden;" parent="gbirktrY-FVWDV3E0UpJ-160" vertex="1"><mxGeometry x="30" width="150" height="30" as="geometry"/></mxCell><mxCell id="gbirktrY-FVWDV3E0UpJ-163" value="" style="shape=partialRectangle;collapsible=0;dropTarget=0;pointerEvents=0;fillColor=none;top=0;left=0;bottom=0;right=0;points=[[0,0.5],[1,0.5]];portConstraint=eastwest;" parent="gbirktrY-FVWDV3E0UpJ-26" vertex="1"><mxGeometry y="90" width="180" height="30" as="geometry"/></mxCell><mxCell id="gbirktrY-FVWDV3E0UpJ-164" value="" style="shape=partialRectangle;connectable=0;fillColor=none;top=0;left=0;bottom=0;right=0;editable=1;overflow=hidden;" parent="gbirktrY-FVWDV3E0UpJ-163" vertex="1"><mxGeometry width="30" height="30" as="geometry"/></mxCell><mxCell id="gbirktrY-FVWDV3E0UpJ-165" value="protocol" style="shape=partialRectangle;connectable=0;fillColor=none;top=0;left=0;bottom=0;right=0;align=left;spacingLeft=6;overflow=hidden;" parent="gbirktrY-FVWDV3E0UpJ-163" vertex="1"><mxGeometry x="30" width="150" height="30" as="geometry"/></mxCell><mxCell id="gbirktrY-FVWDV3E0UpJ-166" value="" style="shape=partialRectangle;collapsible=0;dropTarget=0;pointerEvents=0;fillColor=none;top=0;left=0;bottom=0;right=0;points=[[0,0.5],[1,0.5]];portConstraint=eastwest;" parent="gbirktrY-FVWDV3E0UpJ-26" vertex="1"><mxGeometry y="120" width="180" height="30" as="geometry"/></mxCell><mxCell id="gbirktrY-FVWDV3E0UpJ-167" value="" style="shape=partialRectangle;connectable=0;fillColor=none;top=0;left=0;bottom=0;right=0;editable=1;overflow=hidden;" parent="gbirktrY-FVWDV3E0UpJ-166" vertex="1"><mxGeometry width="30" height="30" as="geometry"/></mxCell><mxCell id="gbirktrY-FVWDV3E0UpJ-168" value="uri" style="shape=partialRectangle;connectable=0;fillColor=none;top=0;left=0;bottom=0;right=0;align=left;spacingLeft=6;overflow=hidden;" parent="gbirktrY-FVWDV3E0UpJ-166" vertex="1"><mxGeometry x="30" width="150" height="30" as="geometry"/></mxCell><mxCell id="gbirktrY-FVWDV3E0UpJ-169" value="" style="shape=partialRectangle;collapsible=0;dropTarget=0;pointerEvents=0;fillColor=none;top=0;left=0;bottom=0;right=0;points=[[0,0.5],[1,0.5]];portConstraint=eastwest;" parent="gbirktrY-FVWDV3E0UpJ-26" vertex="1"><mxGeometry y="150" width="180" height="30" as="geometry"/></mxCell><mxCell id="gbirktrY-FVWDV3E0UpJ-170" value="" style="shape=partialRectangle;connectable=0;fillColor=none;top=0;left=0;bottom=0;right=0;editable=1;overflow=hidden;" parent="gbirktrY-FVWDV3E0UpJ-169" vertex="1"><mxGeometry width="30" height="30" as="geometry"/></mxCell><mxCell id="gbirktrY-FVWDV3E0UpJ-171" value="state（status）" style="shape=partialRectangle;connectable=0;fillColor=none;top=0;left=0;bottom=0;right=0;align=left;spacingLeft=6;overflow=hidden;" parent="gbirktrY-FVWDV3E0UpJ-169" vertex="1"><mxGeometry x="30" width="150" height="30" as="geometry"/></mxCell><mxCell id="gbirktrY-FVWDV3E0UpJ-172" value="" style="shape=partialRectangle;collapsible=0;dropTarget=0;pointerEvents=0;fillColor=none;top=0;left=0;bottom=0;right=0;points=[[0,0.5],[1,0.5]];portConstraint=eastwest;" parent="gbirktrY-FVWDV3E0UpJ-26" vertex="1"><mxGeometry y="180" width="180" height="30" as="geometry"/></mxCell><mxCell id="gbirktrY-FVWDV3E0UpJ-173" value="" style="shape=partialRectangle;connectable=0;fillColor=none;top=0;left=0;bottom=0;right=0;editable=1;overflow=hidden;" parent="gbirktrY-FVWDV3E0UpJ-172" vertex="1"><mxGeometry width="30" height="30" as="geometry"/></mxCell><mxCell id="gbirktrY-FVWDV3E0UpJ-174" value="isDeleted（deleted）" style="shape=partialRectangle;connectable=0;fillColor=none;top=0;left=0;bottom=0;right=0;align=left;spacingLeft=6;overflow=hidden;" parent="gbirktrY-FVWDV3E0UpJ-172" vertex="1"><mxGeometry x="30" width="150" height="30" as="geometry"/></mxCell><mxCell id="gbirktrY-FVWDV3E0UpJ-30" value="WorkerExecutor" style="shape=table;startSize=30;container=1;collapsible=1;childLayout=tableLayout;fixedRows=1;rowLines=0;fontStyle=1;align=center;resizeLast=1;" parent="1" vertex="1"><mxGeometry x="-320" y="60" width="180" height="160" as="geometry"><mxRectangle x="310" y="290" width="100" height="30" as="alternateBounds"/></mxGeometry></mxCell><mxCell id="gbirktrY-FVWDV3E0UpJ-31" value="" style="shape=partialRectangle;collapsible=0;dropTarget=0;pointerEvents=0;fillColor=none;top=0;left=0;bottom=1;right=0;points=[[0,0.5],[1,0.5]];portConstraint=eastwest;" parent="gbirktrY-FVWDV3E0UpJ-30" vertex="1"><mxGeometry y="30" width="180" height="30" as="geometry"/></mxCell><mxCell id="gbirktrY-FVWDV3E0UpJ-32" value="PK" style="shape=partialRectangle;connectable=0;fillColor=none;top=0;left=0;bottom=0;right=0;fontStyle=1;overflow=hidden;" parent="gbirktrY-FVWDV3E0UpJ-31" vertex="1"><mxGeometry width="30" height="30" as="geometry"/></mxCell><mxCell id="gbirktrY-FVWDV3E0UpJ-33" value="workerId" style="shape=partialRectangle;connectable=0;fillColor=none;top=0;left=0;bottom=0;right=0;align=left;spacingLeft=6;fontStyle=5;overflow=hidden;" parent="gbirktrY-FVWDV3E0UpJ-31" vertex="1"><mxGeometry x="30" width="150" height="30" as="geometry"/></mxCell><mxCell id="t86Bx-q1K5HOzZQZWWC3-4" value="" style="shape=partialRectangle;collapsible=0;dropTarget=0;pointerEvents=0;fillColor=none;top=0;left=0;bottom=0;right=0;points=[[0,0.5],[1,0.5]];portConstraint=eastwest;" parent="gbirktrY-FVWDV3E0UpJ-30" vertex="1"><mxGeometry y="60" width="180" height="30" as="geometry"/></mxCell><mxCell id="t86Bx-q1K5HOzZQZWWC3-5" value="" style="shape=partialRectangle;connectable=0;fillColor=none;top=0;left=0;bottom=0;right=0;editable=1;overflow=hidden;" parent="t86Bx-q1K5HOzZQZWWC3-4" vertex="1"><mxGeometry width="30" height="30" as="geometry"/></mxCell><mxCell id="t86Bx-q1K5HOzZQZWWC3-6" value="name" style="shape=partialRectangle;connectable=0;fillColor=none;top=0;left=0;bottom=0;right=0;align=left;spacingLeft=6;overflow=hidden;" parent="t86Bx-q1K5HOzZQZWWC3-4" vertex="1"><mxGeometry x="30" width="150" height="30" as="geometry"/></mxCell><mxCell id="t86Bx-q1K5HOzZQZWWC3-7" value="" style="shape=partialRectangle;collapsible=0;dropTarget=0;pointerEvents=0;fillColor=none;top=0;left=0;bottom=0;right=0;points=[[0,0.5],[1,0.5]];portConstraint=eastwest;" parent="gbirktrY-FVWDV3E0UpJ-30" vertex="1"><mxGeometry y="90" width="180" height="30" as="geometry"/></mxCell><mxCell id="t86Bx-q1K5HOzZQZWWC3-8" value="" style="shape=partialRectangle;connectable=0;fillColor=none;top=0;left=0;bottom=0;right=0;editable=1;overflow=hidden;" parent="t86Bx-q1K5HOzZQZWWC3-7" vertex="1"><mxGeometry width="30" height="30" as="geometry"/></mxCell><mxCell id="t86Bx-q1K5HOzZQZWWC3-9" value="description" style="shape=partialRectangle;connectable=0;fillColor=none;top=0;left=0;bottom=0;right=0;align=left;spacingLeft=6;overflow=hidden;" parent="t86Bx-q1K5HOzZQZWWC3-7" vertex="1"><mxGeometry x="30" width="150" height="30" as="geometry"/></mxCell><mxCell id="t86Bx-q1K5HOzZQZWWC3-13" value="" style="shape=partialRectangle;collapsible=0;dropTarget=0;pointerEvents=0;fillColor=none;top=0;left=0;bottom=0;right=0;points=[[0,0.5],[1,0.5]];portConstraint=eastwest;" parent="gbirktrY-FVWDV3E0UpJ-30" vertex="1"><mxGeometry y="120" width="180" height="30" as="geometry"/></mxCell><mxCell id="t86Bx-q1K5HOzZQZWWC3-14" value="" style="shape=partialRectangle;connectable=0;fillColor=none;top=0;left=0;bottom=0;right=0;editable=1;overflow=hidden;" parent="t86Bx-q1K5HOzZQZWWC3-13" vertex="1"><mxGeometry width="30" height="30" as="geometry"/></mxCell><mxCell id="t86Bx-q1K5HOzZQZWWC3-15" value="type" style="shape=partialRectangle;connectable=0;fillColor=none;top=0;left=0;bottom=0;right=0;align=left;spacingLeft=6;overflow=hidden;" parent="t86Bx-q1K5HOzZQZWWC3-13" vertex="1"><mxGeometry x="30" width="150" height="30" as="geometry"/></mxCell><mxCell id="gbirktrY-FVWDV3E0UpJ-34" value="WorkerMetric" style="shape=table;startSize=30;container=1;collapsible=1;childLayout=tableLayout;fixedRows=1;rowLines=0;fontStyle=1;align=center;resizeLast=1;" parent="1" vertex="1"><mxGeometry x="-810" y="60" width="180" height="280" as="geometry"><mxRectangle x="310" y="290" width="100" height="30" as="alternateBounds"/></mxGeometry></mxCell><mxCell id="gbirktrY-FVWDV3E0UpJ-35" value="" style="shape=partialRectangle;collapsible=0;dropTarget=0;pointerEvents=0;fillColor=none;top=0;left=0;bottom=1;right=0;points=[[0,0.5],[1,0.5]];portConstraint=eastwest;" parent="gbirktrY-FVWDV3E0UpJ-34" vertex="1"><mxGeometry y="30" width="180" height="30" as="geometry"/></mxCell><mxCell id="gbirktrY-FVWDV3E0UpJ-36" value="PK" style="shape=partialRectangle;connectable=0;fillColor=none;top=0;left=0;bottom=0;right=0;fontStyle=1;overflow=hidden;" parent="gbirktrY-FVWDV3E0UpJ-35" vertex="1"><mxGeometry width="30" height="30" as="geometry"/></mxCell><mxCell id="gbirktrY-FVWDV3E0UpJ-37" value="workerId" style="shape=partialRectangle;connectable=0;fillColor=none;top=0;left=0;bottom=0;right=0;align=left;spacingLeft=6;fontStyle=5;overflow=hidden;" parent="gbirktrY-FVWDV3E0UpJ-35" vertex="1"><mxGeometry x="30" width="150" height="30" as="geometry"/></mxCell><mxCell id="gbirktrY-FVWDV3E0UpJ-178" value="" style="shape=partialRectangle;collapsible=0;dropTarget=0;pointerEvents=0;fillColor=none;top=0;left=0;bottom=0;right=0;points=[[0,0.5],[1,0.5]];portConstraint=eastwest;" parent="gbirktrY-FVWDV3E0UpJ-34" vertex="1"><mxGeometry y="60" width="180" height="30" as="geometry"/></mxCell><mxCell id="gbirktrY-FVWDV3E0UpJ-179" value="" style="shape=partialRectangle;connectable=0;fillColor=none;top=0;left=0;bottom=0;right=0;editable=1;overflow=hidden;" parent="gbirktrY-FVWDV3E0UpJ-178" vertex="1"><mxGeometry width="30" height="30" as="geometry"/></mxCell><mxCell id="gbirktrY-FVWDV3E0UpJ-180" value="executingJobs" style="shape=partialRectangle;connectable=0;fillColor=none;top=0;left=0;bottom=0;right=0;align=left;spacingLeft=6;overflow=hidden;" parent="gbirktrY-FVWDV3E0UpJ-178" vertex="1"><mxGeometry x="30" width="150" height="30" as="geometry"/></mxCell><mxCell id="gbirktrY-FVWDV3E0UpJ-190" value="" style="shape=partialRectangle;collapsible=0;dropTarget=0;pointerEvents=0;fillColor=none;top=0;left=0;bottom=0;right=0;points=[[0,0.5],[1,0.5]];portConstraint=eastwest;" parent="gbirktrY-FVWDV3E0UpJ-34" vertex="1"><mxGeometry y="90" width="180" height="30" as="geometry"/></mxCell><mxCell id="gbirktrY-FVWDV3E0UpJ-191" value="N" style="shape=partialRectangle;connectable=0;fillColor=none;top=0;left=0;bottom=0;right=0;editable=1;overflow=hidden;" parent="gbirktrY-FVWDV3E0UpJ-190" vertex="1"><mxGeometry width="30" height="30" as="geometry"/></mxCell><mxCell id="gbirktrY-FVWDV3E0UpJ-192" value="maxCpu" style="shape=partialRectangle;connectable=0;fillColor=none;top=0;left=0;bottom=0;right=0;align=left;spacingLeft=6;overflow=hidden;" parent="gbirktrY-FVWDV3E0UpJ-190" vertex="1"><mxGeometry x="30" width="150" height="30" as="geometry"/></mxCell><mxCell id="gbirktrY-FVWDV3E0UpJ-200" value="" style="shape=partialRectangle;collapsible=0;dropTarget=0;pointerEvents=0;fillColor=none;top=0;left=0;bottom=0;right=0;points=[[0,0.5],[1,0.5]];portConstraint=eastwest;" parent="gbirktrY-FVWDV3E0UpJ-34" vertex="1"><mxGeometry y="120" width="180" height="30" as="geometry"/></mxCell><mxCell id="gbirktrY-FVWDV3E0UpJ-201" value="N" style="shape=partialRectangle;connectable=0;fillColor=none;top=0;left=0;bottom=0;right=0;editable=1;overflow=hidden;" parent="gbirktrY-FVWDV3E0UpJ-200" vertex="1"><mxGeometry width="30" height="30" as="geometry"/></mxCell><mxCell id="gbirktrY-FVWDV3E0UpJ-202" value="maxRam" style="shape=partialRectangle;connectable=0;fillColor=none;top=0;left=0;bottom=0;right=0;align=left;spacingLeft=6;overflow=hidden;" parent="gbirktrY-FVWDV3E0UpJ-200" vertex="1"><mxGeometry x="30" width="150" height="30" as="geometry"/></mxCell><mxCell id="t86Bx-q1K5HOzZQZWWC3-1" value="" style="shape=partialRectangle;collapsible=0;dropTarget=0;pointerEvents=0;fillColor=none;top=0;left=0;bottom=0;right=0;points=[[0,0.5],[1,0.5]];portConstraint=eastwest;" parent="gbirktrY-FVWDV3E0UpJ-34" vertex="1"><mxGeometry y="150" width="180" height="30" as="geometry"/></mxCell><mxCell id="t86Bx-q1K5HOzZQZWWC3-2" value="N" style="shape=partialRectangle;connectable=0;fillColor=none;top=0;left=0;bottom=0;right=0;editable=1;overflow=hidden;" parent="t86Bx-q1K5HOzZQZWWC3-1" vertex="1"><mxGeometry width="30" height="30" as="geometry"/></mxCell><mxCell id="t86Bx-q1K5HOzZQZWWC3-3" value="maxQueueLimit" style="shape=partialRectangle;connectable=0;fillColor=none;top=0;left=0;bottom=0;right=0;align=left;spacingLeft=6;overflow=hidden;" parent="t86Bx-q1K5HOzZQZWWC3-1" vertex="1"><mxGeometry x="30" width="150" height="30" as="geometry"/></mxCell><mxCell id="gbirktrY-FVWDV3E0UpJ-181" value="" style="shape=partialRectangle;collapsible=0;dropTarget=0;pointerEvents=0;fillColor=none;top=0;left=0;bottom=0;right=0;points=[[0,0.5],[1,0.5]];portConstraint=eastwest;" parent="gbirktrY-FVWDV3E0UpJ-34" vertex="1"><mxGeometry y="180" width="180" height="30" as="geometry"/></mxCell><mxCell id="gbirktrY-FVWDV3E0UpJ-182" value="" style="shape=partialRectangle;connectable=0;fillColor=none;top=0;left=0;bottom=0;right=0;editable=1;overflow=hidden;" parent="gbirktrY-FVWDV3E0UpJ-181" vertex="1"><mxGeometry width="30" height="30" as="geometry"/></mxCell><mxCell id="gbirktrY-FVWDV3E0UpJ-183" value="availableCpu" style="shape=partialRectangle;connectable=0;fillColor=none;top=0;left=0;bottom=0;right=0;align=left;spacingLeft=6;overflow=hidden;" parent="gbirktrY-FVWDV3E0UpJ-181" vertex="1"><mxGeometry x="30" width="150" height="30" as="geometry"/></mxCell><mxCell id="gbirktrY-FVWDV3E0UpJ-184" value="" style="shape=partialRectangle;collapsible=0;dropTarget=0;pointerEvents=0;fillColor=none;top=0;left=0;bottom=0;right=0;points=[[0,0.5],[1,0.5]];portConstraint=eastwest;" parent="gbirktrY-FVWDV3E0UpJ-34" vertex="1"><mxGeometry y="210" width="180" height="30" as="geometry"/></mxCell><mxCell id="gbirktrY-FVWDV3E0UpJ-185" value="" style="shape=partialRectangle;connectable=0;fillColor=none;top=0;left=0;bottom=0;right=0;editable=1;overflow=hidden;" parent="gbirktrY-FVWDV3E0UpJ-184" vertex="1"><mxGeometry width="30" height="30" as="geometry"/></mxCell><mxCell id="gbirktrY-FVWDV3E0UpJ-186" value="availableRam" style="shape=partialRectangle;connectable=0;fillColor=none;top=0;left=0;bottom=0;right=0;align=left;spacingLeft=6;overflow=hidden;" parent="gbirktrY-FVWDV3E0UpJ-184" vertex="1"><mxGeometry x="30" width="150" height="30" as="geometry"/></mxCell><mxCell id="gbirktrY-FVWDV3E0UpJ-187" value="" style="shape=partialRectangle;collapsible=0;dropTarget=0;pointerEvents=0;fillColor=none;top=0;left=0;bottom=0;right=0;points=[[0,0.5],[1,0.5]];portConstraint=eastwest;" parent="gbirktrY-FVWDV3E0UpJ-34" vertex="1"><mxGeometry y="240" width="180" height="30" as="geometry"/></mxCell><mxCell id="gbirktrY-FVWDV3E0UpJ-188" value="" style="shape=partialRectangle;connectable=0;fillColor=none;top=0;left=0;bottom=0;right=0;editable=1;overflow=hidden;" parent="gbirktrY-FVWDV3E0UpJ-187" vertex="1"><mxGeometry width="30" height="30" as="geometry"/></mxCell><mxCell id="gbirktrY-FVWDV3E0UpJ-189" value="availableQueueLimit" style="shape=partialRectangle;connectable=0;fillColor=none;top=0;left=0;bottom=0;right=0;align=left;spacingLeft=6;overflow=hidden;" parent="gbirktrY-FVWDV3E0UpJ-187" vertex="1"><mxGeometry x="30" width="150" height="30" as="geometry"/></mxCell><mxCell id="gbirktrY-FVWDV3E0UpJ-38" value="WorkerStatistics" style="shape=table;startSize=30;container=1;collapsible=1;childLayout=tableLayout;fixedRows=1;rowLines=0;fontStyle=1;align=center;resizeLast=1;" parent="1" vertex="1"><mxGeometry x="-560" y="360" width="180" height="130" as="geometry"><mxRectangle x="310" y="290" width="100" height="30" as="alternateBounds"/></mxGeometry></mxCell><mxCell id="gbirktrY-FVWDV3E0UpJ-39" value="" style="shape=partialRectangle;collapsible=0;dropTarget=0;pointerEvents=0;fillColor=none;top=0;left=0;bottom=1;right=0;points=[[0,0.5],[1,0.5]];portConstraint=eastwest;" parent="gbirktrY-FVWDV3E0UpJ-38" vertex="1"><mxGeometry y="30" width="180" height="30" as="geometry"/></mxCell><mxCell id="gbirktrY-FVWDV3E0UpJ-40" value="PK" style="shape=partialRectangle;connectable=0;fillColor=none;top=0;left=0;bottom=0;right=0;fontStyle=1;overflow=hidden;" parent="gbirktrY-FVWDV3E0UpJ-39" vertex="1"><mxGeometry width="30" height="30" as="geometry"/></mxCell><mxCell id="gbirktrY-FVWDV3E0UpJ-41" value="workerId" style="shape=partialRectangle;connectable=0;fillColor=none;top=0;left=0;bottom=0;right=0;align=left;spacingLeft=6;fontStyle=5;overflow=hidden;" parent="gbirktrY-FVWDV3E0UpJ-39" vertex="1"><mxGeometry x="30" width="150" height="30" as="geometry"/></mxCell><mxCell id="t86Bx-q1K5HOzZQZWWC3-16" value="" style="shape=partialRectangle;collapsible=0;dropTarget=0;pointerEvents=0;fillColor=none;top=0;left=0;bottom=0;right=0;points=[[0,0.5],[1,0.5]];portConstraint=eastwest;" parent="gbirktrY-FVWDV3E0UpJ-38" vertex="1"><mxGeometry y="60" width="180" height="30" as="geometry"/></mxCell><mxCell id="t86Bx-q1K5HOzZQZWWC3-17" value="" style="shape=partialRectangle;connectable=0;fillColor=none;top=0;left=0;bottom=0;right=0;editable=1;overflow=hidden;" parent="t86Bx-q1K5HOzZQZWWC3-16" vertex="1"><mxGeometry width="30" height="30" as="geometry"/></mxCell><mxCell id="t86Bx-q1K5HOzZQZWWC3-18" value="jobDispatchCount" style="shape=partialRectangle;connectable=0;fillColor=none;top=0;left=0;bottom=0;right=0;align=left;spacingLeft=6;overflow=hidden;" parent="t86Bx-q1K5HOzZQZWWC3-16" vertex="1"><mxGeometry x="30" width="150" height="30" as="geometry"/></mxCell><mxCell id="t86Bx-q1K5HOzZQZWWC3-19" value="" style="shape=partialRectangle;collapsible=0;dropTarget=0;pointerEvents=0;fillColor=none;top=0;left=0;bottom=0;right=0;points=[[0,0.5],[1,0.5]];portConstraint=eastwest;" parent="gbirktrY-FVWDV3E0UpJ-38" vertex="1"><mxGeometry y="90" width="180" height="30" as="geometry"/></mxCell><mxCell id="t86Bx-q1K5HOzZQZWWC3-20" value="" style="shape=partialRectangle;connectable=0;fillColor=none;top=0;left=0;bottom=0;right=0;editable=1;overflow=hidden;" parent="t86Bx-q1K5HOzZQZWWC3-19" vertex="1"><mxGeometry width="30" height="30" as="geometry"/></mxCell><mxCell id="t86Bx-q1K5HOzZQZWWC3-21" value="latestDispatchTime" style="shape=partialRectangle;connectable=0;fillColor=none;top=0;left=0;bottom=0;right=0;align=left;spacingLeft=6;overflow=hidden;" parent="t86Bx-q1K5HOzZQZWWC3-19" vertex="1"><mxGeometry x="30" width="150" height="30" as="geometry"/></mxCell><mxCell id="t86Bx-q1K5HOzZQZWWC3-23" value="" style="edgeStyle=entityRelationEdgeStyle;fontSize=12;html=1;endArrow=ERoneToMany;" parent="1" source="gbirktrY-FVWDV3E0UpJ-26" target="gbirktrY-FVWDV3E0UpJ-30" edge="1"><mxGeometry width="100" height="100" relative="1" as="geometry"><mxPoint x="-390" y="210" as="sourcePoint"/><mxPoint x="-290" y="110" as="targetPoint"/></mxGeometry></mxCell><mxCell id="t86Bx-q1K5HOzZQZWWC3-24" value="" style="edgeStyle=entityRelationEdgeStyle;fontSize=12;html=1;endArrow=ERmandOne;startArrow=ERmandOne;" parent="1" source="gbirktrY-FVWDV3E0UpJ-34" target="gbirktrY-FVWDV3E0UpJ-26" edge="1"><mxGeometry width="100" height="100" relative="1" as="geometry"><mxPoint x="-650" y="270" as="sourcePoint"/><mxPoint x="-550" y="170" as="targetPoint"/></mxGeometry></mxCell><mxCell id="t86Bx-q1K5HOzZQZWWC3-25" value="" style="edgeStyle=entityRelationEdgeStyle;fontSize=12;html=1;endArrow=ERmandOne;startArrow=ERmandOne;" parent="1" source="gbirktrY-FVWDV3E0UpJ-38" target="gbirktrY-FVWDV3E0UpJ-26" edge="1"><mxGeometry width="100" height="100" relative="1" as="geometry"><mxPoint x="-490" y="280" as="sourcePoint"/><mxPoint x="-390" y="180" as="targetPoint"/></mxGeometry></mxCell><mxCell id="t86Bx-q1K5HOzZQZWWC3-26" value="PlanRecord" style="shape=table;startSize=30;container=1;collapsible=1;childLayout=tableLayout;fixedRows=1;rowLines=0;fontStyle=1;align=center;resizeLast=1;" parent="1" vertex="1"><mxGeometry x="320" y="60" width="180" height="310" as="geometry"><mxRectangle x="560" y="60" width="100" height="30" as="alternateBounds"/></mxGeometry></mxCell><mxCell id="t86Bx-q1K5HOzZQZWWC3-27" value="" style="shape=partialRectangle;collapsible=0;dropTarget=0;pointerEvents=0;fillColor=none;top=0;left=0;bottom=1;right=0;points=[[0,0.5],[1,0.5]];portConstraint=eastwest;" parent="t86Bx-q1K5HOzZQZWWC3-26" vertex="1"><mxGeometry y="30" width="180" height="30" as="geometry"/></mxCell><mxCell id="t86Bx-q1K5HOzZQZWWC3-28" value="PK" style="shape=partialRectangle;connectable=0;fillColor=none;top=0;left=0;bottom=0;right=0;fontStyle=1;overflow=hidden;" parent="t86Bx-q1K5HOzZQZWWC3-27" vertex="1"><mxGeometry width="30" height="30" as="geometry"/></mxCell><mxCell id="t86Bx-q1K5HOzZQZWWC3-29" value="serialId" style="shape=partialRectangle;connectable=0;fillColor=none;top=0;left=0;bottom=0;right=0;align=left;spacingLeft=6;fontStyle=5;overflow=hidden;" parent="t86Bx-q1K5HOzZQZWWC3-27" vertex="1"><mxGeometry x="30" width="150" height="30" as="geometry"/></mxCell><mxCell id="t86Bx-q1K5HOzZQZWWC3-30" value="" style="shape=partialRectangle;collapsible=0;dropTarget=0;pointerEvents=0;fillColor=none;top=0;left=0;bottom=0;right=0;points=[[0,0.5],[1,0.5]];portConstraint=eastwest;" parent="t86Bx-q1K5HOzZQZWWC3-26" vertex="1"><mxGeometry y="60" width="180" height="30" as="geometry"/></mxCell><mxCell id="t86Bx-q1K5HOzZQZWWC3-31" value="" style="shape=partialRectangle;connectable=0;fillColor=none;top=0;left=0;bottom=0;right=0;editable=1;overflow=hidden;" parent="t86Bx-q1K5HOzZQZWWC3-30" vertex="1"><mxGeometry width="30" height="30" as="geometry"/></mxCell><mxCell id="t86Bx-q1K5HOzZQZWWC3-32" value="planRecordId" style="shape=partialRectangle;connectable=0;fillColor=none;top=0;left=0;bottom=0;right=0;align=left;spacingLeft=6;overflow=hidden;" parent="t86Bx-q1K5HOzZQZWWC3-30" vertex="1"><mxGeometry x="30" width="150" height="30" as="geometry"/></mxCell><mxCell id="t86Bx-q1K5HOzZQZWWC3-33" value="" style="shape=partialRectangle;collapsible=0;dropTarget=0;pointerEvents=0;fillColor=none;top=0;left=0;bottom=0;right=0;points=[[0,0.5],[1,0.5]];portConstraint=eastwest;" parent="t86Bx-q1K5HOzZQZWWC3-26" vertex="1"><mxGeometry y="90" width="180" height="30" as="geometry"/></mxCell><mxCell id="t86Bx-q1K5HOzZQZWWC3-34" value="" style="shape=partialRectangle;connectable=0;fillColor=none;top=0;left=0;bottom=0;right=0;editable=1;overflow=hidden;" parent="t86Bx-q1K5HOzZQZWWC3-33" vertex="1"><mxGeometry width="30" height="30" as="geometry"/></mxCell><mxCell id="t86Bx-q1K5HOzZQZWWC3-35" value="planId" style="shape=partialRectangle;connectable=0;fillColor=none;top=0;left=0;bottom=0;right=0;align=left;spacingLeft=6;overflow=hidden;" parent="t86Bx-q1K5HOzZQZWWC3-33" vertex="1"><mxGeometry x="30" width="150" height="30" as="geometry"/></mxCell><mxCell id="t86Bx-q1K5HOzZQZWWC3-36" value="" style="shape=partialRectangle;collapsible=0;dropTarget=0;pointerEvents=0;fillColor=none;top=0;left=0;bottom=0;right=0;points=[[0,0.5],[1,0.5]];portConstraint=eastwest;" parent="t86Bx-q1K5HOzZQZWWC3-26" vertex="1"><mxGeometry y="120" width="180" height="30" as="geometry"/></mxCell><mxCell id="t86Bx-q1K5HOzZQZWWC3-37" value="" style="shape=partialRectangle;connectable=0;fillColor=none;top=0;left=0;bottom=0;right=0;editable=1;overflow=hidden;" parent="t86Bx-q1K5HOzZQZWWC3-36" vertex="1"><mxGeometry width="30" height="30" as="geometry"/></mxCell><mxCell id="t86Bx-q1K5HOzZQZWWC3-38" value="version" style="shape=partialRectangle;connectable=0;fillColor=none;top=0;left=0;bottom=0;right=0;align=left;spacingLeft=6;overflow=hidden;" parent="t86Bx-q1K5HOzZQZWWC3-36" vertex="1"><mxGeometry x="30" width="150" height="30" as="geometry"/></mxCell><mxCell id="t86Bx-q1K5HOzZQZWWC3-51" value="" style="shape=partialRectangle;collapsible=0;dropTarget=0;pointerEvents=0;fillColor=none;top=0;left=0;bottom=0;right=0;points=[[0,0.5],[1,0.5]];portConstraint=eastwest;" parent="t86Bx-q1K5HOzZQZWWC3-26" vertex="1"><mxGeometry y="150" width="180" height="30" as="geometry"/></mxCell><mxCell id="t86Bx-q1K5HOzZQZWWC3-52" value="" style="shape=partialRectangle;connectable=0;fillColor=none;top=0;left=0;bottom=0;right=0;editable=1;overflow=hidden;" parent="t86Bx-q1K5HOzZQZWWC3-51" vertex="1"><mxGeometry width="30" height="30" as="geometry"/></mxCell><mxCell id="t86Bx-q1K5HOzZQZWWC3-53" value="retriedTimes（retry）" style="shape=partialRectangle;connectable=0;fillColor=none;top=0;left=0;bottom=0;right=0;align=left;spacingLeft=6;overflow=hidden;" parent="t86Bx-q1K5HOzZQZWWC3-51" vertex="1"><mxGeometry x="30" width="150" height="30" as="geometry"/></mxCell><mxCell id="t86Bx-q1K5HOzZQZWWC3-39" value="" style="shape=partialRectangle;collapsible=0;dropTarget=0;pointerEvents=0;fillColor=none;top=0;left=0;bottom=0;right=0;points=[[0,0.5],[1,0.5]];portConstraint=eastwest;" parent="t86Bx-q1K5HOzZQZWWC3-26" vertex="1"><mxGeometry y="180" width="180" height="30" as="geometry"/></mxCell><mxCell id="t86Bx-q1K5HOzZQZWWC3-40" value="" style="shape=partialRectangle;connectable=0;fillColor=none;top=0;left=0;bottom=0;right=0;editable=1;overflow=hidden;" parent="t86Bx-q1K5HOzZQZWWC3-39" vertex="1"><mxGeometry width="30" height="30" as="geometry"/></mxCell><mxCell id="t86Bx-q1K5HOzZQZWWC3-41" value="state" style="shape=partialRectangle;connectable=0;fillColor=none;top=0;left=0;bottom=0;right=0;align=left;spacingLeft=6;overflow=hidden;" parent="t86Bx-q1K5HOzZQZWWC3-39" vertex="1"><mxGeometry x="30" width="150" height="30" as="geometry"/></mxCell><mxCell id="t86Bx-q1K5HOzZQZWWC3-54" value="" style="shape=partialRectangle;collapsible=0;dropTarget=0;pointerEvents=0;fillColor=none;top=0;left=0;bottom=0;right=0;points=[[0,0.5],[1,0.5]];portConstraint=eastwest;" parent="t86Bx-q1K5HOzZQZWWC3-26" vertex="1"><mxGeometry y="210" width="180" height="30" as="geometry"/></mxCell><mxCell id="t86Bx-q1K5HOzZQZWWC3-55" value="" style="shape=partialRectangle;connectable=0;fillColor=none;top=0;left=0;bottom=0;right=0;editable=1;overflow=hidden;" parent="t86Bx-q1K5HOzZQZWWC3-54" vertex="1"><mxGeometry width="30" height="30" as="geometry"/></mxCell><mxCell id="t86Bx-q1K5HOzZQZWWC3-56" value="isManualTrigger（manual）" style="shape=partialRectangle;connectable=0;fillColor=none;top=0;left=0;bottom=0;right=0;align=left;spacingLeft=6;overflow=hidden;" parent="t86Bx-q1K5HOzZQZWWC3-54" vertex="1"><mxGeometry x="30" width="150" height="30" as="geometry"/></mxCell><mxCell id="t86Bx-q1K5HOzZQZWWC3-45" value="" style="shape=partialRectangle;collapsible=0;dropTarget=0;pointerEvents=0;fillColor=none;top=0;left=0;bottom=0;right=0;points=[[0,0.5],[1,0.5]];portConstraint=eastwest;" parent="t86Bx-q1K5HOzZQZWWC3-26" vertex="1"><mxGeometry y="240" width="180" height="30" as="geometry"/></mxCell><mxCell id="t86Bx-q1K5HOzZQZWWC3-46" value="" style="shape=partialRectangle;connectable=0;fillColor=none;top=0;left=0;bottom=0;right=0;editable=1;overflow=hidden;" parent="t86Bx-q1K5HOzZQZWWC3-45" vertex="1"><mxGeometry width="30" height="30" as="geometry"/></mxCell><mxCell id="t86Bx-q1K5HOzZQZWWC3-47" value="beginAt（startAt）" style="shape=partialRectangle;connectable=0;fillColor=none;top=0;left=0;bottom=0;right=0;align=left;spacingLeft=6;overflow=hidden;" parent="t86Bx-q1K5HOzZQZWWC3-45" vertex="1"><mxGeometry x="30" width="150" height="30" as="geometry"/></mxCell><mxCell id="t86Bx-q1K5HOzZQZWWC3-48" value="" style="shape=partialRectangle;collapsible=0;dropTarget=0;pointerEvents=0;fillColor=none;top=0;left=0;bottom=0;right=0;points=[[0,0.5],[1,0.5]];portConstraint=eastwest;" parent="t86Bx-q1K5HOzZQZWWC3-26" vertex="1"><mxGeometry y="270" width="180" height="30" as="geometry"/></mxCell><mxCell id="t86Bx-q1K5HOzZQZWWC3-49" value="" style="shape=partialRectangle;connectable=0;fillColor=none;top=0;left=0;bottom=0;right=0;editable=1;overflow=hidden;" parent="t86Bx-q1K5HOzZQZWWC3-48" vertex="1"><mxGeometry width="30" height="30" as="geometry"/></mxCell><mxCell id="t86Bx-q1K5HOzZQZWWC3-50" value="endAt" style="shape=partialRectangle;connectable=0;fillColor=none;top=0;left=0;bottom=0;right=0;align=left;spacingLeft=6;overflow=hidden;" parent="t86Bx-q1K5HOzZQZWWC3-48" vertex="1"><mxGeometry x="30" width="150" height="30" as="geometry"/></mxCell><mxCell id="t86Bx-q1K5HOzZQZWWC3-57" value="" style="edgeStyle=entityRelationEdgeStyle;fontSize=12;html=1;endArrow=ERoneToMany;" parent="1" source="gbirktrY-FVWDV3E0UpJ-46" target="t86Bx-q1K5HOzZQZWWC3-33" edge="1"><mxGeometry width="100" height="100" relative="1" as="geometry"><mxPoint x="220" y="165" as="sourcePoint"/><mxPoint x="300" y="270" as="targetPoint"/></mxGeometry></mxCell><mxCell id="t86Bx-q1K5HOzZQZWWC3-61" value="" style="edgeStyle=entityRelationEdgeStyle;fontSize=12;html=1;endArrow=ERoneToMany;" parent="1" source="t86Bx-q1K5HOzZQZWWC3-30" target="t86Bx-q1K5HOzZQZWWC3-58" edge="1"><mxGeometry width="100" height="100" relative="1" as="geometry"><mxPoint x="220" y="165" as="sourcePoint"/><mxPoint x="330" y="225" as="targetPoint"/></mxGeometry></mxCell><mxCell id="t86Bx-q1K5HOzZQZWWC3-62" value="" style="edgeStyle=entityRelationEdgeStyle;fontSize=12;html=1;endArrow=ERoneToMany;" parent="1" source="gbirktrY-FVWDV3E0UpJ-46" target="gbirktrY-FVWDV3E0UpJ-65" edge="1"><mxGeometry width="100" height="100" relative="1" as="geometry"><mxPoint x="-170" y="330" as="sourcePoint"/><mxPoint x="-60" y="390" as="targetPoint"/></mxGeometry></mxCell><mxCell id="t86Bx-q1K5HOzZQZWWC3-63" value="" style="edgeStyle=entityRelationEdgeStyle;fontSize=12;html=1;endArrow=ERoneToMany;" parent="1" source="gbirktrY-FVWDV3E0UpJ-68" target="t86Bx-q1K5HOzZQZWWC3-36" edge="1"><mxGeometry width="100" height="100" relative="1" as="geometry"><mxPoint x="340" y="360" as="sourcePoint"/><mxPoint x="440" y="260" as="targetPoint"/></mxGeometry></mxCell><mxCell id="t86Bx-q1K5HOzZQZWWC3-64" value="JobInstance" style="shape=table;startSize=30;container=1;collapsible=1;childLayout=tableLayout;fixedRows=1;rowLines=0;fontStyle=1;align=center;resizeLast=1;" parent="1" vertex="1"><mxGeometry x="1090" y="60" width="180" height="310" as="geometry"><mxRectangle x="870" y="60" width="100" height="30" as="alternateBounds"/></mxGeometry></mxCell><mxCell id="t86Bx-q1K5HOzZQZWWC3-65" value="" style="shape=partialRectangle;collapsible=0;dropTarget=0;pointerEvents=0;fillColor=none;top=0;left=0;bottom=1;right=0;points=[[0,0.5],[1,0.5]];portConstraint=eastwest;" parent="t86Bx-q1K5HOzZQZWWC3-64" vertex="1"><mxGeometry y="30" width="180" height="30" as="geometry"/></mxCell><mxCell id="t86Bx-q1K5HOzZQZWWC3-66" value="PK" style="shape=partialRectangle;connectable=0;fillColor=none;top=0;left=0;bottom=0;right=0;fontStyle=1;overflow=hidden;" parent="t86Bx-q1K5HOzZQZWWC3-65" vertex="1"><mxGeometry width="30" height="30" as="geometry"/></mxCell><mxCell id="t86Bx-q1K5HOzZQZWWC3-67" value="serialId" style="shape=partialRectangle;connectable=0;fillColor=none;top=0;left=0;bottom=0;right=0;align=left;spacingLeft=6;fontStyle=5;overflow=hidden;" parent="t86Bx-q1K5HOzZQZWWC3-65" vertex="1"><mxGeometry x="30" width="150" height="30" as="geometry"/></mxCell><mxCell id="t86Bx-q1K5HOzZQZWWC3-109" value="" style="shape=partialRectangle;collapsible=0;dropTarget=0;pointerEvents=0;fillColor=none;top=0;left=0;bottom=0;right=0;points=[[0,0.5],[1,0.5]];portConstraint=eastwest;" parent="t86Bx-q1K5HOzZQZWWC3-64" vertex="1"><mxGeometry y="60" width="180" height="30" as="geometry"/></mxCell><mxCell id="t86Bx-q1K5HOzZQZWWC3-110" value="" style="shape=partialRectangle;connectable=0;fillColor=none;top=0;left=0;bottom=0;right=0;editable=1;overflow=hidden;" parent="t86Bx-q1K5HOzZQZWWC3-109" vertex="1"><mxGeometry width="30" height="30" as="geometry"/></mxCell><mxCell id="t86Bx-q1K5HOzZQZWWC3-111" value="jobInstanceId" style="shape=partialRectangle;connectable=0;fillColor=none;top=0;left=0;bottom=0;right=0;align=left;spacingLeft=6;overflow=hidden;" parent="t86Bx-q1K5HOzZQZWWC3-109" vertex="1"><mxGeometry x="30" width="150" height="30" as="geometry"/></mxCell><mxCell id="t86Bx-q1K5HOzZQZWWC3-68" value="" style="shape=partialRectangle;collapsible=0;dropTarget=0;pointerEvents=0;fillColor=none;top=0;left=0;bottom=0;right=0;points=[[0,0.5],[1,0.5]];portConstraint=eastwest;" parent="t86Bx-q1K5HOzZQZWWC3-64" vertex="1"><mxGeometry y="90" width="180" height="30" as="geometry"/></mxCell><mxCell id="t86Bx-q1K5HOzZQZWWC3-69" value="" style="shape=partialRectangle;connectable=0;fillColor=none;top=0;left=0;bottom=0;right=0;editable=1;overflow=hidden;" parent="t86Bx-q1K5HOzZQZWWC3-68" vertex="1"><mxGeometry width="30" height="30" as="geometry"/></mxCell><mxCell id="t86Bx-q1K5HOzZQZWWC3-70" value="jobId" style="shape=partialRectangle;connectable=0;fillColor=none;top=0;left=0;bottom=0;right=0;align=left;spacingLeft=6;overflow=hidden;" parent="t86Bx-q1K5HOzZQZWWC3-68" vertex="1"><mxGeometry x="30" width="150" height="30" as="geometry"/></mxCell><mxCell id="t86Bx-q1K5HOzZQZWWC3-71" value="" style="shape=partialRectangle;collapsible=0;dropTarget=0;pointerEvents=0;fillColor=none;top=0;left=0;bottom=0;right=0;points=[[0,0.5],[1,0.5]];portConstraint=eastwest;" parent="t86Bx-q1K5HOzZQZWWC3-64" vertex="1"><mxGeometry y="120" width="180" height="30" as="geometry"/></mxCell><mxCell id="t86Bx-q1K5HOzZQZWWC3-72" value="" style="shape=partialRectangle;connectable=0;fillColor=none;top=0;left=0;bottom=0;right=0;editable=1;overflow=hidden;" parent="t86Bx-q1K5HOzZQZWWC3-71" vertex="1"><mxGeometry width="30" height="30" as="geometry"/></mxCell><mxCell id="t86Bx-q1K5HOzZQZWWC3-73" value="planInstanceId" style="shape=partialRectangle;connectable=0;fillColor=none;top=0;left=0;bottom=0;right=0;align=left;spacingLeft=6;overflow=hidden;" parent="t86Bx-q1K5HOzZQZWWC3-71" vertex="1"><mxGeometry x="30" width="150" height="30" as="geometry"/></mxCell><mxCell id="t86Bx-q1K5HOzZQZWWC3-112" value="" style="shape=partialRectangle;collapsible=0;dropTarget=0;pointerEvents=0;fillColor=none;top=0;left=0;bottom=0;right=0;points=[[0,0.5],[1,0.5]];portConstraint=eastwest;" parent="t86Bx-q1K5HOzZQZWWC3-64" vertex="1"><mxGeometry y="150" width="180" height="30" as="geometry"/></mxCell><mxCell id="t86Bx-q1K5HOzZQZWWC3-113" value="" style="shape=partialRectangle;connectable=0;fillColor=none;top=0;left=0;bottom=0;right=0;editable=1;overflow=hidden;" parent="t86Bx-q1K5HOzZQZWWC3-112" vertex="1"><mxGeometry width="30" height="30" as="geometry"/></mxCell><mxCell id="t86Bx-q1K5HOzZQZWWC3-114" value="planRecordId" style="shape=partialRectangle;connectable=0;fillColor=none;top=0;left=0;bottom=0;right=0;align=left;spacingLeft=6;overflow=hidden;" parent="t86Bx-q1K5HOzZQZWWC3-112" vertex="1"><mxGeometry x="30" width="150" height="30" as="geometry"/></mxCell><mxCell id="t86Bx-q1K5HOzZQZWWC3-74" value="" style="shape=partialRectangle;collapsible=0;dropTarget=0;pointerEvents=0;fillColor=none;top=0;left=0;bottom=0;right=0;points=[[0,0.5],[1,0.5]];portConstraint=eastwest;" parent="t86Bx-q1K5HOzZQZWWC3-64" vertex="1"><mxGeometry y="180" width="180" height="30" as="geometry"/></mxCell><mxCell id="t86Bx-q1K5HOzZQZWWC3-75" value="" style="shape=partialRectangle;connectable=0;fillColor=none;top=0;left=0;bottom=0;right=0;editable=1;overflow=hidden;" parent="t86Bx-q1K5HOzZQZWWC3-74" vertex="1"><mxGeometry width="30" height="30" as="geometry"/></mxCell><mxCell id="t86Bx-q1K5HOzZQZWWC3-76" value="planId" style="shape=partialRectangle;connectable=0;fillColor=none;top=0;left=0;bottom=0;right=0;align=left;spacingLeft=6;overflow=hidden;" parent="t86Bx-q1K5HOzZQZWWC3-74" vertex="1"><mxGeometry x="30" width="150" height="30" as="geometry"/></mxCell><mxCell id="t86Bx-q1K5HOzZQZWWC3-80" value="" style="shape=partialRectangle;collapsible=0;dropTarget=0;pointerEvents=0;fillColor=none;top=0;left=0;bottom=0;right=0;points=[[0,0.5],[1,0.5]];portConstraint=eastwest;" parent="t86Bx-q1K5HOzZQZWWC3-64" vertex="1"><mxGeometry y="210" width="180" height="30" as="geometry"/></mxCell><mxCell id="t86Bx-q1K5HOzZQZWWC3-81" value="" style="shape=partialRectangle;connectable=0;fillColor=none;top=0;left=0;bottom=0;right=0;editable=1;overflow=hidden;" parent="t86Bx-q1K5HOzZQZWWC3-80" vertex="1"><mxGeometry width="30" height="30" as="geometry"/></mxCell><mxCell id="t86Bx-q1K5HOzZQZWWC3-82" value="state" style="shape=partialRectangle;connectable=0;fillColor=none;top=0;left=0;bottom=0;right=0;align=left;spacingLeft=6;overflow=hidden;" parent="t86Bx-q1K5HOzZQZWWC3-80" vertex="1"><mxGeometry x="30" width="150" height="30" as="geometry"/></mxCell><mxCell id="t86Bx-q1K5HOzZQZWWC3-92" value="" style="shape=partialRectangle;collapsible=0;dropTarget=0;pointerEvents=0;fillColor=none;top=0;left=0;bottom=0;right=0;points=[[0,0.5],[1,0.5]];portConstraint=eastwest;" parent="t86Bx-q1K5HOzZQZWWC3-64" vertex="1"><mxGeometry y="240" width="180" height="30" as="geometry"/></mxCell><mxCell id="t86Bx-q1K5HOzZQZWWC3-93" value="" style="shape=partialRectangle;connectable=0;fillColor=none;top=0;left=0;bottom=0;right=0;editable=1;overflow=hidden;" parent="t86Bx-q1K5HOzZQZWWC3-92" vertex="1"><mxGeometry width="30" height="30" as="geometry"/></mxCell><mxCell id="t86Bx-q1K5HOzZQZWWC3-94" value="beginAt（startAt）" style="shape=partialRectangle;connectable=0;fillColor=none;top=0;left=0;bottom=0;right=0;align=left;spacingLeft=6;overflow=hidden;" parent="t86Bx-q1K5HOzZQZWWC3-92" vertex="1"><mxGeometry x="30" width="150" height="30" as="geometry"/></mxCell><mxCell id="t86Bx-q1K5HOzZQZWWC3-115" value="" style="shape=partialRectangle;collapsible=0;dropTarget=0;pointerEvents=0;fillColor=none;top=0;left=0;bottom=0;right=0;points=[[0,0.5],[1,0.5]];portConstraint=eastwest;" parent="t86Bx-q1K5HOzZQZWWC3-64" vertex="1"><mxGeometry y="270" width="180" height="30" as="geometry"/></mxCell><mxCell id="t86Bx-q1K5HOzZQZWWC3-116" value="" style="shape=partialRectangle;connectable=0;fillColor=none;top=0;left=0;bottom=0;right=0;editable=1;overflow=hidden;" parent="t86Bx-q1K5HOzZQZWWC3-115" vertex="1"><mxGeometry width="30" height="30" as="geometry"/></mxCell><mxCell id="t86Bx-q1K5HOzZQZWWC3-117" value="endAt" style="shape=partialRectangle;connectable=0;fillColor=none;top=0;left=0;bottom=0;right=0;align=left;spacingLeft=6;overflow=hidden;" parent="t86Bx-q1K5HOzZQZWWC3-115" vertex="1"><mxGeometry x="30" width="150" height="30" as="geometry"/></mxCell><mxCell id="t86Bx-q1K5HOzZQZWWC3-98" value="" style="edgeStyle=entityRelationEdgeStyle;fontSize=12;html=1;endArrow=ERoneToMany;" parent="1" source="gbirktrY-FVWDV3E0UpJ-106" target="gbirktrY-FVWDV3E0UpJ-124" edge="1"><mxGeometry width="100" height="100" relative="1" as="geometry"><mxPoint x="510" y="145" as="sourcePoint"/><mxPoint x="590" y="175" as="targetPoint"/></mxGeometry></mxCell><mxCell id="t86Bx-q1K5HOzZQZWWC3-118" value="" style="edgeStyle=entityRelationEdgeStyle;fontSize=12;html=1;endArrow=ERoneToMany;" parent="1" source="gbirktrY-FVWDV3E0UpJ-1" target="t86Bx-q1K5HOzZQZWWC3-64" edge="1"><mxGeometry width="100" height="100" relative="1" as="geometry"><mxPoint x="1007" y="200" as="sourcePoint"/><mxPoint x="1074" y="230" as="targetPoint"/></mxGeometry></mxCell><mxCell id="2" value="Task" style="shape=table;startSize=30;container=1;collapsible=1;childLayout=tableLayout;fixedRows=1;rowLines=0;fontStyle=1;align=center;resizeLast=1;" vertex="1" parent="1"><mxGeometry x="1360" y="60" width="180" height="520" as="geometry"><mxRectangle x="1360" y="60" width="100" height="30" as="alternateBounds"/></mxGeometry></mxCell><mxCell id="3" value="" style="shape=partialRectangle;collapsible=0;dropTarget=0;pointerEvents=0;fillColor=none;top=0;left=0;bottom=1;right=0;points=[[0,0.5],[1,0.5]];portConstraint=eastwest;" vertex="1" parent="2"><mxGeometry y="30" width="180" height="30" as="geometry"/></mxCell><mxCell id="4" value="PK" style="shape=partialRectangle;connectable=0;fillColor=none;top=0;left=0;bottom=0;right=0;fontStyle=1;overflow=hidden;" vertex="1" parent="3"><mxGeometry width="30" height="30" as="geometry"/></mxCell><mxCell id="5" value="serialId" style="shape=partialRectangle;connectable=0;fillColor=none;top=0;left=0;bottom=0;right=0;align=left;spacingLeft=6;fontStyle=5;overflow=hidden;" vertex="1" parent="3"><mxGeometry x="30" width="150" height="30" as="geometry"/></mxCell><mxCell id="31" value="" style="shape=partialRectangle;collapsible=0;dropTarget=0;pointerEvents=0;fillColor=none;top=0;left=0;bottom=0;right=0;points=[[0,0.5],[1,0.5]];portConstraint=eastwest;" vertex="1" parent="2"><mxGeometry y="60" width="180" height="30" as="geometry"/></mxCell><mxCell id="32" value="" style="shape=partialRectangle;connectable=0;fillColor=none;top=0;left=0;bottom=0;right=0;editable=1;overflow=hidden;" vertex="1" parent="31"><mxGeometry width="30" height="30" as="geometry"/></mxCell><mxCell id="33" value="taskId" style="shape=partialRectangle;connectable=0;fillColor=none;top=0;left=0;bottom=0;right=0;align=left;spacingLeft=6;overflow=hidden;" vertex="1" parent="31"><mxGeometry x="30" width="150" height="30" as="geometry"/></mxCell><mxCell id="6" value="" style="shape=partialRectangle;collapsible=0;dropTarget=0;pointerEvents=0;fillColor=none;top=0;left=0;bottom=0;right=0;points=[[0,0.5],[1,0.5]];portConstraint=eastwest;" vertex="1" parent="2"><mxGeometry y="90" width="180" height="30" as="geometry"/></mxCell><mxCell id="7" value="" style="shape=partialRectangle;connectable=0;fillColor=none;top=0;left=0;bottom=0;right=0;editable=1;overflow=hidden;" vertex="1" parent="6"><mxGeometry width="30" height="30" as="geometry"/></mxCell><mxCell id="8" value="jobInstanceId" style="shape=partialRectangle;connectable=0;fillColor=none;top=0;left=0;bottom=0;right=0;align=left;spacingLeft=6;overflow=hidden;" vertex="1" parent="6"><mxGeometry x="30" width="150" height="30" as="geometry"/></mxCell><mxCell id="9" value="" style="shape=partialRectangle;collapsible=0;dropTarget=0;pointerEvents=0;fillColor=none;top=0;left=0;bottom=0;right=0;points=[[0,0.5],[1,0.5]];portConstraint=eastwest;" vertex="1" parent="2"><mxGeometry y="120" width="180" height="30" as="geometry"/></mxCell><mxCell id="10" value="" style="shape=partialRectangle;connectable=0;fillColor=none;top=0;left=0;bottom=0;right=0;editable=1;overflow=hidden;" vertex="1" parent="9"><mxGeometry width="30" height="30" as="geometry"/></mxCell><mxCell id="11" value="jobId" style="shape=partialRectangle;connectable=0;fillColor=none;top=0;left=0;bottom=0;right=0;align=left;spacingLeft=6;overflow=hidden;" vertex="1" parent="9"><mxGeometry x="30" width="150" height="30" as="geometry"/></mxCell><mxCell id="12" value="" style="shape=partialRectangle;collapsible=0;dropTarget=0;pointerEvents=0;fillColor=none;top=0;left=0;bottom=0;right=0;points=[[0,0.5],[1,0.5]];portConstraint=eastwest;" vertex="1" parent="2"><mxGeometry y="150" width="180" height="30" as="geometry"/></mxCell><mxCell id="13" value="" style="shape=partialRectangle;connectable=0;fillColor=none;top=0;left=0;bottom=0;right=0;editable=1;overflow=hidden;" vertex="1" parent="12"><mxGeometry width="30" height="30" as="geometry"/></mxCell><mxCell id="14" value="planInstanceId" style="shape=partialRectangle;connectable=0;fillColor=none;top=0;left=0;bottom=0;right=0;align=left;spacingLeft=6;overflow=hidden;" vertex="1" parent="12"><mxGeometry x="30" width="150" height="30" as="geometry"/></mxCell><mxCell id="15" value="" style="shape=partialRectangle;collapsible=0;dropTarget=0;pointerEvents=0;fillColor=none;top=0;left=0;bottom=0;right=0;points=[[0,0.5],[1,0.5]];portConstraint=eastwest;" vertex="1" parent="2"><mxGeometry y="180" width="180" height="30" as="geometry"/></mxCell><mxCell id="16" value="" style="shape=partialRectangle;connectable=0;fillColor=none;top=0;left=0;bottom=0;right=0;editable=1;overflow=hidden;" vertex="1" parent="15"><mxGeometry width="30" height="30" as="geometry"/></mxCell><mxCell id="17" value="planRecordId" style="shape=partialRectangle;connectable=0;fillColor=none;top=0;left=0;bottom=0;right=0;align=left;spacingLeft=6;overflow=hidden;" vertex="1" parent="15"><mxGeometry x="30" width="150" height="30" as="geometry"/></mxCell><mxCell id="18" value="" style="shape=partialRectangle;collapsible=0;dropTarget=0;pointerEvents=0;fillColor=none;top=0;left=0;bottom=0;right=0;points=[[0,0.5],[1,0.5]];portConstraint=eastwest;" vertex="1" parent="2"><mxGeometry y="210" width="180" height="30" as="geometry"/></mxCell><mxCell id="19" value="" style="shape=partialRectangle;connectable=0;fillColor=none;top=0;left=0;bottom=0;right=0;editable=1;overflow=hidden;" vertex="1" parent="18"><mxGeometry width="30" height="30" as="geometry"/></mxCell><mxCell id="20" value="planId" style="shape=partialRectangle;connectable=0;fillColor=none;top=0;left=0;bottom=0;right=0;align=left;spacingLeft=6;overflow=hidden;" vertex="1" parent="18"><mxGeometry x="30" width="150" height="30" as="geometry"/></mxCell><mxCell id="21" value="" style="shape=partialRectangle;collapsible=0;dropTarget=0;pointerEvents=0;fillColor=none;top=0;left=0;bottom=0;right=0;points=[[0,0.5],[1,0.5]];portConstraint=eastwest;" vertex="1" parent="2"><mxGeometry y="240" width="180" height="30" as="geometry"/></mxCell><mxCell id="22" value="" style="shape=partialRectangle;connectable=0;fillColor=none;top=0;left=0;bottom=0;right=0;editable=1;overflow=hidden;" vertex="1" parent="21"><mxGeometry width="30" height="30" as="geometry"/></mxCell><mxCell id="23" value="state" style="shape=partialRectangle;connectable=0;fillColor=none;top=0;left=0;bottom=0;right=0;align=left;spacingLeft=6;overflow=hidden;" vertex="1" parent="21"><mxGeometry x="30" width="150" height="30" as="geometry"/></mxCell><mxCell id="34" value="" style="shape=partialRectangle;collapsible=0;dropTarget=0;pointerEvents=0;fillColor=none;top=0;left=0;bottom=0;right=0;points=[[0,0.5],[1,0.5]];portConstraint=eastwest;" vertex="1" parent="2"><mxGeometry y="270" width="180" height="30" as="geometry"/></mxCell><mxCell id="35" value="" style="shape=partialRectangle;connectable=0;fillColor=none;top=0;left=0;bottom=0;right=0;editable=1;overflow=hidden;" vertex="1" parent="34"><mxGeometry width="30" height="30" as="geometry"/></mxCell><mxCell id="36" value="result" style="shape=partialRectangle;connectable=0;fillColor=none;top=0;left=0;bottom=0;right=0;align=left;spacingLeft=6;overflow=hidden;" vertex="1" parent="34"><mxGeometry x="30" width="150" height="30" as="geometry"/></mxCell><mxCell id="37" value="" style="shape=partialRectangle;collapsible=0;dropTarget=0;pointerEvents=0;fillColor=none;top=0;left=0;bottom=0;right=0;points=[[0,0.5],[1,0.5]];portConstraint=eastwest;" vertex="1" parent="2"><mxGeometry y="300" width="180" height="30" as="geometry"/></mxCell><mxCell id="38" value="" style="shape=partialRectangle;connectable=0;fillColor=none;top=0;left=0;bottom=0;right=0;editable=1;overflow=hidden;" vertex="1" parent="37"><mxGeometry width="30" height="30" as="geometry"/></mxCell><mxCell id="39" value="workerId" style="shape=partialRectangle;connectable=0;fillColor=none;top=0;left=0;bottom=0;right=0;align=left;spacingLeft=6;overflow=hidden;" vertex="1" parent="37"><mxGeometry x="30" width="150" height="30" as="geometry"/></mxCell><mxCell id="40" value="" style="shape=partialRectangle;collapsible=0;dropTarget=0;pointerEvents=0;fillColor=none;top=0;left=0;bottom=0;right=0;points=[[0,0.5],[1,0.5]];portConstraint=eastwest;" vertex="1" parent="2"><mxGeometry y="330" width="180" height="30" as="geometry"/></mxCell><mxCell id="41" value="" style="shape=partialRectangle;connectable=0;fillColor=none;top=0;left=0;bottom=0;right=0;editable=1;overflow=hidden;" vertex="1" parent="40"><mxGeometry width="30" height="30" as="geometry"/></mxCell><mxCell id="42" value="type" style="shape=partialRectangle;connectable=0;fillColor=none;top=0;left=0;bottom=0;right=0;align=left;spacingLeft=6;overflow=hidden;" vertex="1" parent="40"><mxGeometry x="30" width="150" height="30" as="geometry"/></mxCell><mxCell id="43" value="" style="shape=partialRectangle;collapsible=0;dropTarget=0;pointerEvents=0;fillColor=none;top=0;left=0;bottom=0;right=0;points=[[0,0.5],[1,0.5]];portConstraint=eastwest;" vertex="1" parent="2"><mxGeometry y="360" width="180" height="30" as="geometry"/></mxCell><mxCell id="44" value="" style="shape=partialRectangle;connectable=0;fillColor=none;top=0;left=0;bottom=0;right=0;editable=1;overflow=hidden;" vertex="1" parent="43"><mxGeometry width="30" height="30" as="geometry"/></mxCell><mxCell id="45" value="attributes" style="shape=partialRectangle;connectable=0;fillColor=none;top=0;left=0;bottom=0;right=0;align=left;spacingLeft=6;overflow=hidden;" vertex="1" parent="43"><mxGeometry x="30" width="150" height="30" as="geometry"/></mxCell><mxCell id="46" value="" style="shape=partialRectangle;collapsible=0;dropTarget=0;pointerEvents=0;fillColor=none;top=0;left=0;bottom=0;right=0;points=[[0,0.5],[1,0.5]];portConstraint=eastwest;" vertex="1" parent="2"><mxGeometry y="390" width="180" height="30" as="geometry"/></mxCell><mxCell id="47" value="" style="shape=partialRectangle;connectable=0;fillColor=none;top=0;left=0;bottom=0;right=0;editable=1;overflow=hidden;" vertex="1" parent="46"><mxGeometry width="30" height="30" as="geometry"/></mxCell><mxCell id="48" value="errorMsg" style="shape=partialRectangle;connectable=0;fillColor=none;top=0;left=0;bottom=0;right=0;align=left;spacingLeft=6;overflow=hidden;" vertex="1" parent="46"><mxGeometry x="30" width="150" height="30" as="geometry"/></mxCell><mxCell id="49" value="" style="shape=partialRectangle;collapsible=0;dropTarget=0;pointerEvents=0;fillColor=none;top=0;left=0;bottom=0;right=0;points=[[0,0.5],[1,0.5]];portConstraint=eastwest;" vertex="1" parent="2"><mxGeometry y="420" width="180" height="30" as="geometry"/></mxCell><mxCell id="50" value="" style="shape=partialRectangle;connectable=0;fillColor=none;top=0;left=0;bottom=0;right=0;editable=1;overflow=hidden;" vertex="1" parent="49"><mxGeometry width="30" height="30" as="geometry"/></mxCell><mxCell id="51" value="errorStackTrace" style="shape=partialRectangle;connectable=0;fillColor=none;top=0;left=0;bottom=0;right=0;align=left;spacingLeft=6;overflow=hidden;" vertex="1" parent="49"><mxGeometry x="30" width="150" height="30" as="geometry"/></mxCell><mxCell id="24" value="" style="shape=partialRectangle;collapsible=0;dropTarget=0;pointerEvents=0;fillColor=none;top=0;left=0;bottom=0;right=0;points=[[0,0.5],[1,0.5]];portConstraint=eastwest;" vertex="1" parent="2"><mxGeometry y="450" width="180" height="30" as="geometry"/></mxCell><mxCell id="25" value="" style="shape=partialRectangle;connectable=0;fillColor=none;top=0;left=0;bottom=0;right=0;editable=1;overflow=hidden;" vertex="1" parent="24"><mxGeometry width="30" height="30" as="geometry"/></mxCell><mxCell id="26" value="beginAt（startAt）" style="shape=partialRectangle;connectable=0;fillColor=none;top=0;left=0;bottom=0;right=0;align=left;spacingLeft=6;overflow=hidden;" vertex="1" parent="24"><mxGeometry x="30" width="150" height="30" as="geometry"/></mxCell><mxCell id="27" value="" style="shape=partialRectangle;collapsible=0;dropTarget=0;pointerEvents=0;fillColor=none;top=0;left=0;bottom=0;right=0;points=[[0,0.5],[1,0.5]];portConstraint=eastwest;" vertex="1" parent="2"><mxGeometry y="480" width="180" height="30" as="geometry"/></mxCell><mxCell id="28" value="" style="shape=partialRectangle;connectable=0;fillColor=none;top=0;left=0;bottom=0;right=0;editable=1;overflow=hidden;" vertex="1" parent="27"><mxGeometry width="30" height="30" as="geometry"/></mxCell><mxCell id="29" value="endAt" style="shape=partialRectangle;connectable=0;fillColor=none;top=0;left=0;bottom=0;right=0;align=left;spacingLeft=6;overflow=hidden;" vertex="1" parent="27"><mxGeometry x="30" width="150" height="30" as="geometry"/></mxCell><mxCell id="52" value="" style="edgeStyle=entityRelationEdgeStyle;fontSize=12;html=1;endArrow=ERoneToMany;" edge="1" parent="1" source="t86Bx-q1K5HOzZQZWWC3-64" target="2"><mxGeometry width="100" height="100" relative="1" as="geometry"><mxPoint x="1270" y="200" as="sourcePoint"/><mxPoint x="1353" y="200" as="targetPoint"/></mxGeometry></mxCell></root></mxGraphModel></diagram><diagram id="JZV-PAt6GMvHJcxJeTMf" name="第 2 页"><mxGraphModel dx="1186" dy="613" grid="1" gridSize="10" guides="1" tooltips="1" connect="1" arrows="1" fold="1" page="1" pageScale="1" pageWidth="827" pageHeight="1169" math="0" shadow="0"><root><mxCell id="EiI4cMNIhUd8hlAia7cf-0"/><mxCell id="EiI4cMNIhUd8hlAia7cf-1" parent="EiI4cMNIhUd8hlAia7cf-0"/></root></mxGraphModel></diagram></mxfile>